<?xml version="1.0" encoding="utf-8"?>
<!-- Generator: Adobe Illustrator 27.5.0, SVG Export Plug-In . SVG Version: 6.00 Build 0)  -->
<svg version="1.1" xmlns="http://www.w3.org/2000/svg" xmlns:xlink="http://www.w3.org/1999/xlink" x="0px" y="0px"
     viewBox="0 0 750 500" style="enable-background:new 0 0 750 500;" xml:space="preserve">
<g id="Background_Simple">
	<g>
		<path style="fill:rgba(218,6,6,0);" d="M549.607,126.035c-4.238-7.11-8.681-14.114-13.735-20.787
			c-58.335-77.011-214.57-118.935-291.985-39.335c-18.451,18.972-24.882,41.898-37.301,63.656
			c-28.246,49.486-81.019,79.071-114.11,124.895c-25.651,35.522-22.231,81.047-7.922,119.446
			c15.549,41.727,42.913,70.869,86.684,93.021c49.07,24.834,101.552,17.939,154.592,9.297c23.854-3.886,48.447-7.852,72.837-6.368
			c30.536,1.857,60.684,9.339,90.98,12.975c31.507,3.782,64.197,4.676,94.548-3.566c97.198-26.394,120.224-150.082,80.254-220.935
			c-14.148-25.08-38.127-44.429-60.393-64.06C580.022,173.083,565.289,152.342,549.607,126.035z"/>
        <path style="opacity:0.8;fill:rgba(255,255,255,0);" d="M549.607,126.035c-4.238-7.11-8.681-14.114-13.735-20.787
			c-58.335-77.011-214.57-118.935-291.985-39.335c-18.451,18.972-24.882,41.898-37.301,63.656
			c-28.246,49.486-81.019,79.071-114.11,124.895c-25.651,35.522-22.231,81.047-7.922,119.446
			c15.549,41.727,42.913,70.869,86.684,93.021c49.07,24.834,101.552,17.939,154.592,9.297c23.854-3.886,48.447-7.852,72.837-6.368
			c30.536,1.857,60.684,9.339,90.98,12.975c31.507,3.782,64.197,4.676,94.548-3.566c97.198-26.394,120.224-150.082,80.254-220.935
			c-14.148-25.08-38.127-44.429-60.393-64.06C580.022,173.083,565.289,152.342,549.607,126.035z"/>
	</g>
</g>
    <g id="Floor">
	<ellipse style="fill:#263238;" cx="381.5" cy="460.617" rx="302.619" ry="8.801"/>
</g>
    <g id="Plants">
	<g>
		<g>
			<path style="fill:#92E3A9;" d="M230.975,201.358c2.536-0.977,6.773-5.357,6.777-5.36c0.044-0.045-3.735-1.916-3.987-2.007
				c-2.916-1.05-9.169-1.363-11.288,1.386c-1.527,1.98-0.764,4.712,1.273,5.979C225.832,202.649,228.815,202.19,230.975,201.358z"/>
            <path style="fill:#92E3A9;" d="M244.875,212.433c2.103-1.548,4.862-6.491,5.08-6.886c2.75,1.562,5.699,2.941,8.759,4.173
				c1.749,0.706,3.533,1.363,5.329,1.999c-0.863-0.168-1.637-0.312-1.747-0.321c-3.091-0.242-9.203,1.108-10.521,4.318
				c-0.951,2.313,0.507,4.747,2.807,5.43c2.348,0.698,5.105-0.533,6.969-1.905c1.892-1.393,4.328-5.56,4.959-6.671
				c0.692,0.237,1.38,0.481,2.073,0.714c3.324,1.124,6.645,2.23,9.869,3.415c1.137,0.417,2.24,0.87,3.347,1.318
				c-0.767-0.149-1.414-0.267-1.515-0.275c-3.09-0.242-9.203,1.107-10.521,4.318c-0.95,2.313,0.507,4.747,2.807,5.43
				c2.349,0.697,5.105-0.533,6.969-1.906c1.806-1.329,4.089-5.155,4.844-6.472c1.119,0.494,2.241,0.986,3.303,1.515
				c0.717,0.378,1.434,0.691,2.132,1.111c0.701,0.4,1.395,0.797,2.082,1.19c1.295,0.804,2.637,1.627,3.881,2.444
				c0.87,0.561,1.688,1.113,2.514,1.666c-1.126-0.428-3.349-1.221-3.543-1.266c-3.017-0.708-9.263-0.299-11.054,2.674
				c-1.289,2.143-0.218,4.769,1.952,5.792c2.216,1.045,5.126,0.247,7.177-0.827c2.257-1.184,5.618-5.46,6.034-5.998
				c1.363,0.92,2.681,1.827,3.91,2.703c1.104,0.783,2.139,1.536,3.124,2.262l1.547-1.528c-1.095-0.775-2.255-1.582-3.498-2.424
				c-1.38-0.939-2.874-1.916-4.418-2.904c0.175-0.4,1.158-2.68,1.808-4.924c2.616,0.12,7.436-1.478,8.057-1.689
				c0.63,1.519,1.228,3.003,1.77,4.412c0.376,0.969,0.728,1.903,1.062,2.805l1.639-1.619c-0.255-0.636-0.514-1.281-0.79-1.949
				c-0.633-1.545-1.341-3.184-2.083-4.859c0.56-0.362,5.123-3.345,6.499-5.495c1.247-1.95,2.295-4.781,1.445-7.08
				c-0.832-2.25-3.357-3.544-5.603-2.444c-3.117,1.526-4.063,7.714-3.619,10.782c0.026,0.181,0.53,2.113,0.867,3.326
				c-0.307-0.683-0.598-1.349-0.922-2.049c-0.632-1.388-1.304-2.753-2.022-4.225c-0.371-0.699-0.747-1.405-1.125-2.117
				c-0.361-0.715-0.833-1.424-1.25-2.145c-1.003-1.651-2.099-3.275-3.239-4.886c1.213-0.557,5.493-2.596,7.029-4.343
				c1.529-1.739,2.993-4.378,2.5-6.778c-0.482-2.35-2.781-4.013-5.168-3.266c-3.313,1.037-5.185,7.01-5.21,10.11
				c-0.002,0.193,0.23,2.419,0.38,3.639c-0.693-0.963-1.38-1.928-2.113-2.88c-2.115-2.748-4.342-5.464-6.551-8.183
				c-0.677-0.833-1.342-1.67-2.01-2.507c0.434-0.193,5.574-2.507,7.294-4.464c1.529-1.738,2.993-4.378,2.5-6.778
				c-0.481-2.35-2.781-4.012-5.167-3.265c-3.313,1.036-5.185,7.01-5.211,10.109c-0.002,0.233,0.336,3.436,0.461,4.246
				c-1.472-1.842-2.922-3.691-4.276-5.572c-1.873-2.592-3.568-5.24-5.02-7.926c0.202-0.089,5.577-2.481,7.339-4.484
				c1.529-1.739,2.993-4.378,2.501-6.779c-0.482-2.35-2.781-4.012-5.167-3.266c-3.313,1.037-5.184,7.01-5.211,10.109
				c-0.002,0.243,0.363,3.688,0.474,4.309c-0.086-0.16-0.193-0.316-0.276-0.477c-1.514-2.887-2.618-5.875-3.514-8.722
				c-0.524-1.654-0.933-3.264-1.295-4.839c1.047-0.343,5.814-1.962,7.599-3.589c1.71-1.56,3.456-4.023,3.23-6.463
				c-0.221-2.389-2.323-4.294-4.777-3.814c-3.407,0.667-5.923,6.398-6.29,9.476c-0.02,0.167-0.034,1.891-0.026,3.146
				c-0.153-0.714-0.324-1.447-0.456-2.133c-0.504-2.576-0.807-4.966-1.058-7.085c-0.133-1.205-0.23-2.299-0.309-3.323
				c0.852-0.871,4.24-4.43,5.059-6.656c0.798-2.173,1.213-5.163-0.111-7.224c-1.298-2.018-4.041-2.74-5.997-1.183
				c-2.716,2.161-2.309,8.408-1.216,11.308c0.095,0.251,2.023,4.001,2.068,3.956c0,0,0.042-0.042,0.052-0.052
				c0.056,0.987,0.129,2.044,0.231,3.197c0.205,2.129,0.457,4.531,0.907,7.128c0.443,2.597,0.997,5.405,1.848,8.31
				c0.849,2.913,1.892,5.934,3.368,8.908c0.016,0.034,0.038,0.066,0.055,0.1c-0.702-0.736-2.733-2.728-2.907-2.863
				c-2.444-1.906-8.286-4.154-11.158-2.203c-2.068,1.405-2.196,4.239-0.654,6.078c1.575,1.877,4.552,2.372,6.864,2.255
				c2.607-0.131,7.635-2.732,8.035-2.94c1.431,2.819,3.13,5.596,5.003,8.312c1.07,1.554,2.195,3.085,3.343,4.607
				c-0.628-0.617-1.193-1.164-1.28-1.231c-2.444-1.906-8.286-4.153-11.158-2.203c-2.069,1.405-2.196,4.239-0.654,6.077
				c1.574,1.878,4.551,2.372,6.864,2.255c2.346-0.119,6.678-2.25,7.816-2.829c0.447,0.579,0.886,1.163,1.335,1.74
				c2.152,2.77,4.312,5.525,6.348,8.293c0.718,0.975,1.389,1.961,2.064,2.945c-0.557-0.547-1.032-1.003-1.111-1.065
				c-2.444-1.906-8.286-4.154-11.157-2.204c-2.069,1.406-2.196,4.24-0.655,6.079c1.573,1.877,4.552,2.371,6.864,2.255
				c2.238-0.112,6.255-2.044,7.611-2.726c0.661,1.029,1.324,2.059,1.919,3.086c0.39,0.711,0.814,1.367,1.166,2.103
				c0.363,0.72,0.724,1.434,1.08,2.14c0.636,1.386,1.302,2.812,1.889,4.179c0.416,0.948,0.793,1.86,1.177,2.776
				c-0.703-0.978-2.12-2.866-2.256-3.01c-1.413-1.498-4.286-3.365-6.975-4.016c-0.207-0.222-0.433-0.426-0.679-0.606
				c-1.936-1.417-4.755-1.105-6.022,1.052c-1.758,2.993,0.867,8.676,2.93,10.989c0.122,0.137,1.607,1.47,2.558,2.296
				c-0.633-0.4-1.243-0.796-1.899-1.2c-1.293-0.808-2.607-1.576-4.018-2.409c-0.695-0.378-1.397-0.759-2.107-1.144
				c-0.695-0.397-1.48-0.728-2.225-1.099c-1.747-0.824-3.557-1.574-5.397-2.289c0.705-1.134,3.15-5.196,3.467-7.5
				c0.316-2.293,0.081-5.303-1.653-7.033c-1.699-1.694-4.533-1.813-6.111,0.126c-2.191,2.692-0.458,8.707,1.23,11.307
				c0.106,0.162,1.526,1.891,2.325,2.826c-1.109-0.421-2.215-0.847-3.351-1.237c-3.28-1.126-6.635-2.163-9.978-3.212
				c-1.024-0.321-2.04-0.653-3.059-0.981c0.255-0.401,3.265-5.167,3.621-7.747c0.316-2.293,0.081-5.302-1.654-7.033
				c-1.698-1.694-4.533-1.813-6.111,0.127c-2.191,2.692-0.458,8.707,1.23,11.306c0.128,0.196,2.176,2.68,2.727,3.287
				c-2.243-0.724-4.472-1.467-6.641-2.288c-2.992-1.129-5.866-2.402-8.559-3.842c0.119-0.187,3.283-5.147,3.648-7.789
				c0.316-2.293,0.081-5.303-1.654-7.033c-1.698-1.695-4.532-1.813-6.111,0.127c-2.191,2.692-0.457,8.707,1.231,11.306
				c0.133,0.204,2.338,2.876,2.772,3.332c-0.16-0.086-0.335-0.157-0.494-0.244c-2.856-1.574-5.424-3.457-7.743-5.337
				c-1.349-1.09-2.578-2.207-3.749-3.321c0.684-0.863,3.767-4.844,4.357-7.186c0.566-2.245,0.663-5.262-0.871-7.172
				c-1.502-1.871-4.307-2.3-6.088-0.546c-2.474,2.435-1.411,8.604-0.019,11.373c0.076,0.151,1.015,1.596,1.714,2.639
				c-0.521-0.511-1.068-1.028-1.557-1.528c-1.841-1.87-3.413-3.696-4.791-5.325c-0.777-0.933-1.46-1.791-2.09-2.601
				c0.229-1.197,1.092-6.034,0.547-8.343c-0.532-2.253-1.836-4.975-4.078-5.964c-2.195-0.968-4.882-0.056-5.655,2.321
				c-1.073,3.301,2.713,8.286,5.224,10.103c0.217,0.156,3.894,2.22,3.907,2.158c0,0,0.011-0.058,0.014-0.072
				c0.591,0.792,1.235,1.633,1.957,2.539c1.345,1.662,2.881,3.527,4.689,5.445c1.802,1.921,3.814,3.958,6.127,5.911
				c2.315,1.961,4.851,3.907,7.723,5.572c0.032,0.019,0.069,0.034,0.101,0.053c-0.992-0.226-3.785-0.766-4.004-0.784
				c-3.09-0.242-9.202,1.107-10.521,4.317c-0.95,2.313,0.507,4.747,2.807,5.431C240.255,215.036,243.011,213.805,244.875,212.433z"
            />
            <path style="fill:#92E3A9;" d="M275.75,158.998c0.062-0.014-2.058-3.659-2.218-3.874c-1.854-2.484-6.896-6.194-10.181-5.071
				c-2.366,0.809-3.237,3.509-2.235,5.689c1.022,2.226,3.763,3.49,6.024,3.988C269.795,160.314,275.745,158.998,275.75,158.998z"/>
		</g>
        <g>
			<path style="fill:#92E3A9;" d="M532.29,206.931c-2.568-0.891-6.951-5.125-6.954-5.128c-0.045-0.044,3.668-2.042,3.917-2.141
				c2.879-1.148,9.117-1.672,11.329,1.003c1.593,1.927,0.923,4.684-1.071,6.018C537.474,208.047,534.477,207.689,532.29,206.931z"/>
            <path style="fill:#92E3A9;" d="M518.772,218.469c-2.154-1.476-5.078-6.323-5.309-6.71c-2.696,1.654-5.596,3.132-8.613,4.466
				c-1.724,0.765-3.485,1.481-5.259,2.178c0.857-0.197,1.625-0.367,1.735-0.38c3.081-0.346,9.235,0.796,10.661,3.96
				c1.029,2.28-0.346,4.761-2.621,5.522c-2.323,0.777-5.12-0.36-7.029-1.669c-1.938-1.328-4.514-5.41-5.181-6.5
				c-0.684,0.26-1.363,0.527-2.047,0.784c-3.284,1.235-6.565,2.453-9.748,3.747c-1.122,0.455-2.21,0.945-3.3,1.431
				c0.762-0.175,1.405-0.315,1.505-0.326c3.08-0.346,9.235,0.796,10.661,3.96c1.028,2.28-0.346,4.762-2.622,5.522
				c-2.324,0.776-5.12-0.36-7.03-1.669c-1.849-1.267-4.261-5.014-5.06-6.305c-1.102,0.531-2.206,1.061-3.25,1.626
				c-0.704,0.402-1.41,0.739-2.093,1.182c-0.687,0.424-1.367,0.844-2.041,1.26c-1.267,0.848-2.581,1.715-3.796,2.574
				c-0.85,0.591-1.649,1.169-2.456,1.75c1.111-0.466,3.306-1.333,3.498-1.385c2.992-0.809,9.248-0.612,11.138,2.299
				c1.361,2.098,0.379,4.759-1.756,5.855c-2.179,1.12-5.115,0.42-7.201-0.584c-2.296-1.107-5.799-5.268-6.233-5.791
				c-1.331,0.965-2.617,1.917-3.817,2.834c-1.077,0.82-2.086,1.607-3.045,2.367l-1.597-1.475c1.068-0.812,2.2-1.657,3.414-2.54
				c1.348-0.986,2.808-2.012,4.318-3.051c-0.189-0.394-1.248-2.639-1.973-4.86c-2.61,0.208-7.482-1.226-8.109-1.416
				c-0.579,1.539-1.126,3.042-1.62,4.469c-0.343,0.981-0.663,1.927-0.966,2.839l-1.692-1.563c0.233-0.644,0.471-1.297,0.724-1.974
				c0.581-1.566,1.232-3.228,1.918-4.927c-0.572-0.343-5.233-3.17-6.681-5.272c-1.312-1.907-2.455-4.701-1.683-7.027
				c0.755-2.277,3.235-3.656,5.517-2.632c3.167,1.42,4.321,7.572,3.981,10.653c-0.02,0.182-0.458,2.13-0.754,3.353
				c0.284-0.693,0.552-1.369,0.853-2.079c0.585-1.408,1.211-2.795,1.878-4.291c0.348-0.711,0.699-1.429,1.053-2.154
				c0.337-0.726,0.785-1.451,1.177-2.186c0.946-1.684,1.987-3.344,3.072-4.993c-1.231-0.516-5.578-2.409-7.172-4.103
				c-1.586-1.686-3.139-4.274-2.728-6.69c0.402-2.365,2.644-4.104,5.054-3.439c3.346,0.924,5.418,6.831,5.549,9.928
				c0.009,0.193-0.148,2.426-0.257,3.65c0.66-0.986,1.314-1.973,2.014-2.95c2.021-2.818,4.155-5.607,6.27-8.4
				c0.649-0.855,1.285-1.715,1.924-2.573c-0.44-0.179-5.655-2.318-7.44-4.215c-1.587-1.685-3.139-4.274-2.728-6.69
				c0.402-2.365,2.644-4.104,5.054-3.438c3.346,0.924,5.419,6.83,5.549,9.927c0.01,0.233-0.22,3.445-0.318,4.26
				c1.409-1.891,2.795-3.788,4.086-5.714c1.785-2.654,3.389-5.358,4.749-8.091c-0.205-0.083-5.658-2.291-7.487-4.233
				c-1.586-1.686-3.139-4.275-2.728-6.69c0.402-2.365,2.643-4.104,5.054-3.438c3.346,0.924,5.418,6.831,5.549,9.927
				c0.01,0.243-0.238,3.699-0.328,4.322c0.08-0.163,0.182-0.323,0.26-0.486c1.415-2.937,2.418-5.96,3.217-8.836
				c0.468-1.67,0.822-3.293,1.131-4.88c-1.058-0.307-5.877-1.764-7.715-3.331c-1.762-1.501-3.59-3.904-3.446-6.35
				c0.14-2.395,2.177-4.37,4.645-3.973c3.427,0.551,6.136,6.194,6.606,9.258c0.025,0.166,0.098,1.889,0.132,3.144
				c0.129-0.718,0.275-1.457,0.384-2.147c0.417-2.592,0.639-4.99,0.818-7.116c0.092-1.209,0.152-2.305,0.197-3.331
				c-0.881-0.842-4.388-4.284-5.281-6.481c-0.871-2.144-1.387-5.119-0.133-7.224c1.228-2.061,3.946-2.875,5.954-1.385
				c2.788,2.068,2.592,8.325,1.597,11.26c-0.086,0.253-1.886,4.067-1.933,4.023c0,0-0.043-0.041-0.053-0.051
				c-0.023,0.988-0.06,2.047-0.123,3.203c-0.133,2.135-0.303,4.544-0.666,7.155c-0.355,2.61-0.814,5.435-1.566,8.368
				c-0.75,2.941-1.69,5.995-3.065,9.017c-0.015,0.034-0.036,0.068-0.052,0.102c0.677-0.759,2.639-2.819,2.808-2.959
				c2.378-1.988,8.141-4.432,11.077-2.579c2.114,1.334,2.338,4.162,0.859,6.052c-1.51,1.93-4.469,2.524-6.784,2.486
				c-2.61-0.043-7.723-2.473-8.13-2.667c-1.335,2.866-2.939,5.699-4.719,8.476c-1.017,1.589-2.09,3.158-3.186,4.717
				c0.606-0.638,1.153-1.203,1.238-1.274c2.379-1.988,8.141-4.431,11.077-2.579c2.115,1.334,2.338,4.163,0.859,6.052
				c-1.51,1.93-4.469,2.524-6.783,2.486c-2.349-0.039-6.75-2.023-7.907-2.563c-0.427,0.594-0.846,1.192-1.275,1.784
				c-2.057,2.841-4.123,5.668-6.064,8.503c-0.685,0.998-1.322,2.007-1.963,3.013c0.539-0.565,0.998-1.037,1.075-1.102
				c2.379-1.988,8.141-4.431,11.077-2.58c2.115,1.335,2.338,4.163,0.86,6.053c-1.509,1.929-4.469,2.524-6.784,2.485
				c-2.241-0.037-6.32-1.831-7.699-2.467c-0.626,1.051-1.254,2.102-1.813,3.149c-0.365,0.723-0.767,1.394-1.094,2.141
				c-0.339,0.732-0.675,1.458-1.007,2.176c-0.589,1.407-1.206,2.854-1.746,4.241c-0.383,0.962-0.73,1.885-1.083,2.814
				c0.67-1.002,2.022-2.936,2.153-3.084c1.362-1.544,4.17-3.508,6.835-4.249c0.2-0.229,0.418-0.44,0.658-0.629
				c1.887-1.482,4.715-1.265,6.054,0.848c1.858,2.932-0.573,8.7-2.556,11.081c-0.117,0.141-1.557,1.523-2.479,2.381
				c0.62-0.421,1.215-0.838,1.858-1.263c1.265-0.851,2.552-1.663,3.934-2.543c0.682-0.401,1.371-0.805,2.067-1.215
				c0.681-0.42,1.454-0.777,2.187-1.173c1.718-0.882,3.502-1.693,5.317-2.47c-0.743-1.11-3.323-5.087-3.718-7.379
				c-0.394-2.281-0.26-5.297,1.415-7.085c1.641-1.751,4.469-1.965,6.112-0.08c2.281,2.616,0.752,8.687-0.848,11.342
				c-0.1,0.165-1.462,1.941-2.228,2.903c1.094-0.458,2.185-0.922,3.308-1.349c3.24-1.236,6.558-2.386,9.864-3.547
				c1.013-0.355,2.017-0.721,3.024-1.084c-0.269-0.392-3.438-5.054-3.881-7.62c-0.393-2.281-0.26-5.297,1.415-7.085
				c1.64-1.751,4.469-1.965,6.112-0.079c2.281,2.616,0.752,8.686-0.847,11.341c-0.121,0.2-2.084,2.752-2.615,3.377
				c2.217-0.799,4.42-1.617,6.56-2.511c2.953-1.23,5.782-2.599,8.424-4.129c-0.126-0.183-3.455-5.033-3.909-7.661
				c-0.393-2.281-0.26-5.297,1.415-7.085c1.64-1.751,4.469-1.965,6.112-0.079c2.281,2.616,0.751,8.686-0.848,11.341
				c-0.126,0.209-2.24,2.954-2.658,3.423c0.157-0.091,0.33-0.168,0.485-0.261c2.801-1.67,5.304-3.638,7.558-5.596
				c1.312-1.135,2.501-2.293,3.634-3.446c-0.713-0.84-3.928-4.714-4.597-7.034c-0.641-2.225-0.84-5.237,0.628-7.197
				c1.438-1.921,4.227-2.444,6.066-0.751c2.555,2.35,1.701,8.552,0.403,11.366c-0.071,0.153-0.96,1.63-1.624,2.696
				c0.503-0.528,1.033-1.064,1.505-1.579c1.777-1.932,3.286-3.81,4.608-5.484c0.745-0.959,1.398-1.84,2.001-2.67
				c-0.269-1.189-1.296-5.994-0.829-8.32c0.456-2.27,1.667-5.034,3.874-6.098c2.161-1.042,4.877-0.221,5.73,2.129
				c1.184,3.263-2.431,8.373-4.88,10.274c-0.212,0.163-3.817,2.351-3.832,2.289c0,0-0.013-0.058-0.016-0.072
				c-0.564,0.811-1.179,1.674-1.87,2.604c-1.288,1.707-2.76,3.623-4.503,5.6c-1.736,1.981-3.678,4.084-5.923,6.115
				c-2.248,2.038-4.716,4.068-7.53,5.83c-0.032,0.02-0.068,0.037-0.1,0.056c0.983-0.26,3.757-0.894,3.975-0.918
				c3.08-0.346,9.234,0.795,10.661,3.959c1.027,2.28-0.346,4.762-2.622,5.522C523.477,220.914,520.682,219.777,518.772,218.469z"/>
            <path style="fill:#92E3A9;" d="M486.109,166.108c-0.062-0.012,1.933-3.727,2.085-3.946c1.769-2.545,6.683-6.423,10.003-5.412
				c2.392,0.728,3.353,3.397,2.426,5.61c-0.946,2.26-3.643,3.615-5.886,4.189C492.105,167.223,486.114,166.108,486.109,166.108z"/>
		</g>
        <g>
			<path style="fill:#92E3A9;" d="M309.379,148.943c1.318,0.043,4.039-1.112,4.042-1.113c0.028-0.012-1.306-1.563-1.401-1.651
				c-1.104-1.021-3.839-2.343-5.306-1.516c-1.057,0.596-1.233,1.961-0.562,2.912C306.837,148.547,308.256,148.906,309.379,148.943z"
            />
            <path style="fill:#92E3A9;" d="M313.494,156.52c1.232-0.294,3.4-1.98,3.572-2.116c0.933,1.218,1.99,2.392,3.124,3.521
				c0.648,0.646,1.32,1.277,2.003,1.901c-0.354-0.238-0.672-0.449-0.72-0.474c-1.335-0.692-4.321-1.246-5.517-0.061
				c-0.862,0.854-0.672,2.217,0.227,2.957c0.917,0.756,2.382,0.728,3.474,0.467c1.109-0.264,2.986-1.665,3.477-2.043
				c0.264,0.237,0.526,0.476,0.791,0.711c1.272,1.131,2.547,2.253,3.763,3.393c0.429,0.401,0.836,0.812,1.246,1.222
				c-0.315-0.212-0.581-0.387-0.625-0.41c-1.335-0.692-4.321-1.246-5.517-0.061c-0.862,0.854-0.671,2.217,0.227,2.957
				c0.918,0.756,2.382,0.728,3.474,0.467c1.058-0.252,2.802-1.53,3.389-1.975c0.407,0.432,0.814,0.864,1.189,1.301
				c0.249,0.304,0.51,0.58,0.743,0.9c0.238,0.312,0.472,0.62,0.705,0.926c0.426,0.604,0.87,1.226,1.271,1.826
				c0.282,0.415,0.544,0.816,0.808,1.22c-0.422-0.404-1.266-1.179-1.344-1.236c-1.214-0.887-4.082-1.886-5.444-0.896
				c-0.981,0.713-0.999,2.089-0.223,2.957c0.792,0.886,2.244,1.08,3.363,0.988c1.232-0.102,3.543-1.377,3.83-1.538
				c0.435,0.669,0.852,1.323,1.236,1.947c0.345,0.559,0.665,1.091,0.968,1.602l0.98-0.39c-0.343-0.554-0.708-1.133-1.104-1.744
				c-0.439-0.681-0.922-1.4-1.425-2.133c0.154-0.145,1.024-0.978,1.739-1.858c1.146,0.548,3.602,0.746,3.919,0.769
				c-0.006,0.798-0.019,1.574-0.044,2.306c-0.016,0.504-0.035,0.988-0.056,1.454l1.038-0.413c0.007-0.332,0.013-0.669,0.016-1.02
				c0.009-0.81,0.003-1.676-0.012-2.565c0.319-0.056,2.921-0.525,3.943-1.226c0.926-0.635,1.93-1.702,1.985-2.89
				c0.054-1.162-0.829-2.218-2.041-2.152c-1.681,0.092-3.274,2.678-3.656,4.132c-0.023,0.086-0.163,1.044-0.242,1.65
				c-0.008-0.363-0.012-0.716-0.025-1.09c-0.02-0.74-0.062-1.477-0.104-2.27c-0.034-0.382-0.068-0.769-0.102-1.159
				c-0.026-0.387-0.103-0.794-0.153-1.194c-0.135-0.927-0.318-1.86-0.523-2.796c0.647-0.02,2.945-0.121,3.962-0.611
				c1.012-0.488,2.165-1.39,2.399-2.555c0.229-1.141-0.483-2.319-1.691-2.437c-1.676-0.163-3.642,2.151-4.24,3.531
				c-0.038,0.086-0.355,1.124-0.518,1.698c-0.128-0.562-0.252-1.122-0.399-1.687c-0.425-1.628-0.906-3.262-1.379-4.895
				c-0.145-0.5-0.283-1-0.424-1.5c0.231-0.004,2.964-0.066,4.103-0.615c1.012-0.487,2.165-1.39,2.399-2.555
				c0.229-1.141-0.483-2.319-1.691-2.436c-1.676-0.164-3.642,2.151-4.24,3.531c-0.045,0.104-0.5,1.599-0.597,1.984
				c-0.309-1.102-0.607-2.202-0.857-3.298c-0.347-1.512-0.603-3.016-0.743-4.491c0.107-0.002,2.961-0.053,4.127-0.615
				c1.012-0.488,2.165-1.39,2.399-2.556c0.229-1.141-0.483-2.318-1.691-2.436c-1.676-0.163-3.642,2.151-4.24,3.531
				c-0.047,0.108-0.535,1.716-0.603,2.015c-0.008-0.088-0.026-0.178-0.033-0.265c-0.13-1.576-0.058-3.12,0.08-4.561
				c0.079-0.838,0.201-1.635,0.337-2.407c0.533,0.045,2.969,0.223,4.074-0.166c1.059-0.374,2.305-1.144,2.665-2.276
				c0.353-1.109-0.226-2.358-1.413-2.607c-1.648-0.346-3.856,1.738-4.602,3.044c-0.04,0.071-0.373,0.838-0.607,1.401
				c0.067-0.348,0.129-0.708,0.2-1.039c0.262-1.246,0.579-2.371,0.867-3.365c0.169-0.564,0.332-1.07,0.491-1.543
				c0.545-0.228,2.732-1.177,3.519-2.017c0.768-0.82,1.519-2.077,1.317-3.249c-0.198-1.147-1.287-1.988-2.456-1.663
				c-1.622,0.452-2.622,3.32-2.682,4.822c-0.005,0.13,0.147,2.17,0.175,2.158c0,0,0.027-0.011,0.033-0.013
				c-0.161,0.451-0.329,0.937-0.502,1.472c-0.311,0.99-0.653,2.111-0.943,3.356c-0.293,1.244-0.577,2.603-0.746,4.062
				c-0.172,1.462-0.277,3.009-0.18,4.617c0.001,0.018,0.005,0.037,0.006,0.055c-0.174-0.462-0.705-1.736-0.757-1.829
				c-0.731-1.314-2.916-3.423-4.568-3.095c-1.19,0.237-1.783,1.479-1.442,2.592c0.348,1.137,1.585,1.92,2.64,2.306
				c1.19,0.435,3.928,0.224,4.146,0.206c0.106,1.53,0.34,3.092,0.663,4.66c0.184,0.897,0.397,1.794,0.622,2.691
				c-0.164-0.394-0.313-0.745-0.339-0.792c-0.731-1.314-2.916-3.423-4.568-3.095c-1.19,0.236-1.783,1.479-1.442,2.591
				c0.348,1.137,1.585,1.921,2.64,2.306c1.07,0.391,3.409,0.258,4.027,0.215c0.09,0.343,0.176,0.687,0.267,1.03
				c0.438,1.645,0.881,3.284,1.267,4.906c0.137,0.571,0.25,1.139,0.365,1.706c-0.146-0.35-0.272-0.643-0.295-0.686
				c-0.732-1.314-2.916-3.423-4.568-3.095c-1.19,0.237-1.783,1.479-1.442,2.592c0.348,1.136,1.585,1.92,2.64,2.305
				c1.021,0.373,3.181,0.27,3.916,0.222c0.101,0.585,0.202,1.17,0.273,1.742c0.04,0.391,0.105,0.765,0.123,1.16
				c0.026,0.39,0.052,0.777,0.078,1.161c0.022,0.74,0.05,1.502,0.053,2.224c0.006,0.502,0.003,0.981,0.001,1.463
				c-0.129-0.57-0.405-1.681-0.439-1.771c-0.348-0.937-1.278-2.314-2.357-3.113c-0.05-0.139-0.113-0.272-0.189-0.399
				c-0.597-0.999-1.916-1.393-2.889-0.669c-1.352,1.004-1.254,4.04-0.77,5.464c0.029,0.084,0.44,0.961,0.709,1.509
				c-0.207-0.298-0.405-0.591-0.622-0.895c-0.425-0.605-0.867-1.197-1.339-1.836c-0.239-0.3-0.481-0.603-0.725-0.91
				c-0.235-0.309-0.523-0.605-0.786-0.912c-0.625-0.698-1.292-1.376-1.978-2.044c0.53-0.373,2.39-1.726,2.967-2.695
				c0.575-0.965,1.039-2.354,0.592-3.455c-0.439-1.078-1.682-1.667-2.754-1.099c-1.488,0.788-1.851,3.803-1.589,5.284
				c0.016,0.092,0.324,1.134,0.504,1.702c-0.416-0.398-0.829-0.798-1.263-1.186c-1.253-1.123-2.555-2.221-3.85-3.322
				c-0.397-0.337-0.788-0.678-1.181-1.017c0.19-0.131,2.436-1.691,3.083-2.776c0.575-0.965,1.039-2.354,0.591-3.455
				c-0.438-1.078-1.682-1.667-2.754-1.099c-1.488,0.788-1.851,3.803-1.589,5.284c0.02,0.111,0.465,1.609,0.597,1.984
				c-0.865-0.748-1.721-1.501-2.534-2.278c-1.123-1.071-2.167-2.183-3.097-3.335c0.089-0.061,2.44-1.678,3.103-2.79
				c0.575-0.965,1.039-2.354,0.591-3.455c-0.438-1.078-1.682-1.667-2.754-1.099c-1.488,0.788-1.851,3.803-1.589,5.284
				c0.021,0.116,0.5,1.727,0.608,2.013c-0.055-0.068-0.12-0.133-0.174-0.202c-0.978-1.243-1.77-2.57-2.45-3.849
				c-0.397-0.742-0.734-1.474-1.046-2.193c0.469-0.256,2.599-1.451,3.306-2.386c0.678-0.896,1.292-2.226,0.967-3.369
				c-0.317-1.12-1.489-1.842-2.617-1.395c-1.566,0.62-2.258,3.577-2.159,5.078c0.005,0.082,0.151,0.905,0.267,1.503
				c-0.136-0.327-0.283-0.661-0.407-0.977c-0.469-1.184-0.826-2.297-1.133-3.285c-0.171-0.564-0.313-1.077-0.442-1.558
				c0.329-0.492,1.629-2.489,1.823-3.624c0.188-1.107,0.12-2.57-0.694-3.436c-0.798-0.848-2.17-0.949-2.966-0.033
				c-1.104,1.272-0.355,4.215,0.423,5.502c0.068,0.111,1.32,1.729,1.337,1.703c0,0,0.016-0.024,0.02-0.03
				c0.114,0.465,0.243,0.963,0.394,1.505c0.287,0.997,0.62,2.121,1.065,3.32c0.442,1.199,0.955,2.49,1.619,3.8
				c0.664,1.314,1.428,2.663,2.396,3.95c0.011,0.014,0.024,0.028,0.035,0.043c-0.4-0.289-1.546-1.058-1.641-1.107
				c-1.335-0.693-4.321-1.246-5.517-0.061c-0.862,0.854-0.671,2.217,0.227,2.957C310.938,156.809,312.402,156.781,313.494,156.52z"
            />
            <path style="fill:#92E3A9;" d="M337.395,138.487c0.03,0.006-0.227-2.024-0.258-2.15c-0.358-1.46-1.909-4.072-3.589-4.191
				c-1.21-0.086-2.11,0.955-2.075,2.119c0.035,1.188,1.021,2.271,1.937,2.921C334.486,137.949,337.393,138.486,337.395,138.487z"/>
		</g>
        <g>
			<path style="fill:#92E3A9;" d="M449.657,148.943c-1.318,0.043-4.039-1.112-4.042-1.113c-0.028-0.012,1.306-1.563,1.401-1.651
				c1.104-1.021,3.839-2.343,5.306-1.516c1.057,0.596,1.233,1.961,0.562,2.912C452.199,148.547,450.78,148.906,449.657,148.943z"/>
            <path style="fill:#92E3A9;" d="M445.542,156.52c-1.232-0.294-3.4-1.98-3.572-2.116c-0.933,1.218-1.99,2.392-3.124,3.521
				c-0.648,0.646-1.32,1.277-2.003,1.901c0.354-0.238,0.672-0.449,0.72-0.474c1.335-0.692,4.321-1.246,5.517-0.061
				c0.862,0.854,0.672,2.217-0.227,2.957c-0.917,0.756-2.382,0.728-3.474,0.467c-1.109-0.264-2.986-1.665-3.477-2.043
				c-0.264,0.237-0.525,0.476-0.791,0.711c-1.272,1.131-2.547,2.253-3.763,3.393c-0.429,0.401-0.836,0.812-1.246,1.222
				c0.315-0.212,0.581-0.387,0.625-0.41c1.335-0.692,4.321-1.246,5.517-0.061c0.862,0.854,0.671,2.217-0.227,2.957
				c-0.918,0.756-2.382,0.728-3.474,0.467c-1.058-0.252-2.802-1.53-3.389-1.975c-0.407,0.432-0.814,0.864-1.189,1.301
				c-0.249,0.304-0.51,0.58-0.743,0.9c-0.237,0.312-0.472,0.62-0.705,0.926c-0.427,0.604-0.871,1.226-1.272,1.826
				c-0.282,0.415-0.544,0.816-0.808,1.22c0.422-0.404,1.266-1.179,1.343-1.236c1.214-0.887,4.082-1.886,5.444-0.896
				c0.981,0.713,0.999,2.089,0.223,2.957c-0.792,0.886-2.243,1.08-3.363,0.988c-1.232-0.102-3.543-1.377-3.83-1.538
				c-0.435,0.669-0.852,1.323-1.236,1.947c-0.345,0.559-0.665,1.091-0.968,1.602l-0.98-0.39c0.343-0.554,0.708-1.133,1.105-1.744
				c0.439-0.681,0.922-1.4,1.425-2.133c-0.154-0.145-1.024-0.978-1.739-1.858c-1.146,0.548-3.602,0.746-3.919,0.769
				c0.006,0.798,0.019,1.574,0.044,2.306c0.016,0.504,0.035,0.988,0.056,1.454l-1.038-0.413c-0.007-0.332-0.013-0.669-0.016-1.02
				c-0.009-0.81-0.003-1.676,0.012-2.565c-0.319-0.056-2.921-0.525-3.943-1.226c-0.926-0.635-1.93-1.702-1.985-2.89
				c-0.054-1.162,0.829-2.218,2.041-2.152c1.681,0.092,3.274,2.678,3.656,4.132c0.023,0.086,0.163,1.044,0.242,1.65
				c0.008-0.363,0.012-0.716,0.025-1.09c0.02-0.74,0.062-1.477,0.104-2.27c0.034-0.382,0.068-0.769,0.102-1.159
				c0.026-0.387,0.103-0.794,0.153-1.194c0.135-0.927,0.318-1.86,0.523-2.796c-0.647-0.02-2.945-0.121-3.962-0.611
				c-1.012-0.488-2.165-1.39-2.399-2.555c-0.229-1.141,0.483-2.319,1.691-2.437c1.676-0.163,3.642,2.151,4.24,3.531
				c0.037,0.086,0.355,1.124,0.518,1.698c0.127-0.562,0.252-1.122,0.399-1.687c0.425-1.628,0.906-3.262,1.379-4.895
				c0.145-0.5,0.284-1,0.424-1.5c-0.231-0.004-2.964-0.066-4.103-0.615c-1.012-0.487-2.165-1.39-2.399-2.555
				c-0.229-1.141,0.483-2.319,1.691-2.436c1.676-0.164,3.642,2.151,4.24,3.531c0.045,0.104,0.5,1.599,0.597,1.984
				c0.309-1.102,0.607-2.202,0.857-3.298c0.347-1.512,0.603-3.016,0.743-4.491c-0.107-0.002-2.961-0.053-4.127-0.615
				c-1.012-0.488-2.165-1.39-2.399-2.556c-0.229-1.141,0.483-2.318,1.691-2.436c1.676-0.163,3.642,2.151,4.24,3.531
				c0.047,0.108,0.535,1.716,0.603,2.015c0.008-0.088,0.026-0.178,0.033-0.265c0.13-1.576,0.058-3.12-0.08-4.561
				c-0.078-0.838-0.201-1.635-0.336-2.407c-0.533,0.045-2.969,0.223-4.074-0.166c-1.059-0.374-2.305-1.144-2.665-2.276
				c-0.353-1.109,0.226-2.358,1.413-2.607c1.648-0.346,3.857,1.738,4.602,3.044c0.04,0.071,0.373,0.838,0.607,1.401
				c-0.067-0.348-0.129-0.708-0.2-1.039c-0.262-1.246-0.579-2.371-0.867-3.365c-0.169-0.564-0.332-1.07-0.491-1.543
				c-0.545-0.228-2.732-1.177-3.519-2.017c-0.768-0.82-1.519-2.077-1.317-3.249c0.198-1.147,1.287-1.988,2.456-1.663
				c1.622,0.452,2.622,3.32,2.682,4.822c0.005,0.13-0.147,2.17-0.176,2.158c0,0-0.027-0.011-0.033-0.013
				c0.161,0.451,0.329,0.937,0.501,1.472c0.311,0.99,0.653,2.111,0.943,3.356c0.293,1.244,0.577,2.603,0.746,4.062
				c0.172,1.462,0.277,3.009,0.18,4.617c-0.001,0.018-0.005,0.037-0.006,0.055c0.174-0.462,0.705-1.736,0.757-1.829
				c0.731-1.314,2.916-3.423,4.568-3.095c1.19,0.237,1.783,1.479,1.442,2.592c-0.348,1.137-1.585,1.92-2.64,2.306
				c-1.19,0.435-3.928,0.224-4.146,0.206c-0.106,1.53-0.34,3.092-0.663,4.66c-0.184,0.897-0.397,1.794-0.622,2.691
				c0.164-0.394,0.313-0.745,0.339-0.792c0.731-1.314,2.916-3.423,4.568-3.095c1.19,0.236,1.783,1.479,1.442,2.591
				c-0.348,1.137-1.585,1.921-2.64,2.306c-1.07,0.391-3.409,0.258-4.027,0.215c-0.09,0.343-0.176,0.687-0.267,1.03
				c-0.438,1.645-0.881,3.284-1.267,4.906c-0.137,0.571-0.25,1.139-0.365,1.706c0.146-0.35,0.271-0.643,0.295-0.686
				c0.732-1.314,2.916-3.423,4.568-3.095c1.19,0.237,1.783,1.479,1.442,2.592c-0.348,1.136-1.585,1.92-2.64,2.305
				c-1.021,0.373-3.181,0.27-3.916,0.222c-0.101,0.585-0.202,1.17-0.273,1.742c-0.04,0.391-0.105,0.765-0.123,1.16
				c-0.026,0.39-0.052,0.777-0.078,1.161c-0.022,0.74-0.05,1.502-0.053,2.224c-0.006,0.502-0.003,0.981-0.001,1.463
				c0.129-0.57,0.405-1.681,0.439-1.771c0.348-0.937,1.278-2.314,2.357-3.113c0.051-0.139,0.113-0.272,0.189-0.399
				c0.597-0.999,1.916-1.393,2.889-0.669c1.352,1.004,1.254,4.04,0.77,5.464c-0.029,0.084-0.44,0.961-0.709,1.509
				c0.207-0.298,0.405-0.591,0.622-0.895c0.425-0.605,0.867-1.197,1.339-1.836c0.239-0.3,0.481-0.603,0.725-0.91
				c0.235-0.309,0.523-0.605,0.786-0.912c0.625-0.698,1.292-1.376,1.978-2.044c-0.53-0.373-2.39-1.726-2.967-2.695
				c-0.575-0.965-1.039-2.354-0.591-3.455c0.439-1.078,1.682-1.667,2.754-1.099c1.488,0.788,1.852,3.803,1.589,5.284
				c-0.017,0.092-0.324,1.134-0.504,1.702c0.416-0.398,0.829-0.798,1.263-1.186c1.253-1.123,2.555-2.221,3.85-3.322
				c0.397-0.337,0.788-0.678,1.181-1.017c-0.19-0.131-2.436-1.691-3.083-2.776c-0.575-0.965-1.039-2.354-0.591-3.455
				c0.438-1.078,1.682-1.667,2.754-1.099c1.488,0.788,1.851,3.803,1.589,5.284c-0.02,0.111-0.465,1.609-0.597,1.984
				c0.865-0.748,1.721-1.501,2.534-2.278c1.123-1.071,2.166-2.183,3.097-3.335c-0.089-0.061-2.44-1.678-3.103-2.79
				c-0.575-0.965-1.039-2.354-0.591-3.455c0.438-1.078,1.682-1.667,2.754-1.099c1.488,0.788,1.851,3.803,1.589,5.284
				c-0.021,0.116-0.5,1.727-0.608,2.013c0.055-0.068,0.12-0.133,0.174-0.202c0.978-1.243,1.77-2.57,2.45-3.849
				c0.397-0.742,0.734-1.474,1.047-2.193c-0.469-0.256-2.599-1.451-3.306-2.386c-0.677-0.896-1.291-2.226-0.967-3.369
				c0.317-1.12,1.489-1.842,2.617-1.395c1.566,0.62,2.258,3.577,2.159,5.078c-0.005,0.082-0.151,0.905-0.267,1.503
				c0.136-0.327,0.283-0.661,0.407-0.977c0.469-1.184,0.826-2.297,1.133-3.285c0.171-0.564,0.313-1.077,0.442-1.558
				c-0.329-0.492-1.629-2.489-1.822-3.624c-0.188-1.107-0.121-2.57,0.694-3.436c0.798-0.848,2.171-0.949,2.966-0.033
				c1.104,1.272,0.355,4.215-0.423,5.502c-0.068,0.111-1.32,1.729-1.337,1.703c0,0-0.016-0.024-0.02-0.03
				c-0.114,0.465-0.243,0.963-0.394,1.505c-0.287,0.997-0.62,2.121-1.065,3.32c-0.442,1.199-0.955,2.49-1.619,3.8
				c-0.663,1.314-1.428,2.663-2.396,3.95c-0.011,0.014-0.024,0.028-0.035,0.043c0.4-0.289,1.546-1.058,1.641-1.107
				c1.335-0.693,4.321-1.246,5.517-0.061c0.862,0.854,0.671,2.217-0.227,2.957C448.098,156.809,446.634,156.781,445.542,156.52z"/>
            <path style="fill:#92E3A9;" d="M421.641,138.487c-0.03,0.006,0.227-2.024,0.258-2.15c0.359-1.46,1.909-4.072,3.589-4.191
				c1.21-0.086,2.11,0.955,2.075,2.119c-0.035,1.188-1.021,2.271-1.937,2.921C424.551,137.949,421.643,138.486,421.641,138.487z"/>
		</g>
        <g>
			<path style="fill:#92E3A9;" d="M496.44,279.577c-0.717-1.107-1.13-4.035-1.13-4.037c-0.004-0.03,2.012,0.314,2.137,0.35
				c1.444,0.42,3.987,2.081,4.034,3.764c0.034,1.212-1.045,2.067-2.205,1.983C498.09,281.551,497.051,280.519,496.44,279.577z"/>
            <path style="fill:#92E3A9;" d="M487.826,279.957c-0.383-1.208-0.056-3.934-0.029-4.151c-1.525-0.172-3.075-0.472-4.628-0.862
				c-0.888-0.222-1.775-0.473-2.661-0.736c0.387,0.181,0.731,0.345,0.777,0.373c1.282,0.787,3.295,3.06,2.897,4.696
				c-0.287,1.179-1.553,1.718-2.651,1.33c-1.121-0.396-1.851-1.666-2.191-2.736c-0.345-1.086-0.112-3.417-0.043-4.033
				c-0.339-0.104-0.679-0.205-1.017-0.311c-1.625-0.507-3.244-1.021-4.847-1.475c-0.565-0.161-1.127-0.298-1.69-0.438
				c0.344,0.161,0.631,0.299,0.673,0.324c1.281,0.787,3.295,3.06,2.897,4.696c-0.287,1.179-1.553,1.718-2.651,1.33
				c-1.121-0.397-1.851-1.665-2.191-2.736c-0.329-1.037-0.134-3.19-0.054-3.922c-0.58-0.125-1.161-0.252-1.728-0.348
				c-0.389-0.056-0.76-0.138-1.154-0.173c-0.389-0.043-0.775-0.085-1.156-0.127c-0.738-0.054-1.499-0.114-2.22-0.148
				c-0.501-0.028-0.98-0.045-1.462-0.063c0.564,0.153,1.662,0.477,1.751,0.514c1.386,0.583,3.721,2.525,3.575,4.203
				c-0.105,1.209-1.275,1.934-2.419,1.716c-1.168-0.222-2.082-1.366-2.58-2.372c-0.548-1.108-0.647-3.745-0.657-4.075
				c-0.797-0.028-1.573-0.048-2.306-0.055c-0.656-0.008-1.278-0.008-1.871-0.003l-0.171-1.041c0.651,0.008,1.336,0.022,2.064,0.047
				c0.81,0.025,1.675,0.068,2.562,0.121c0.045-0.207,0.31-1.382,0.695-2.448c-1.061-0.699-2.496-2.702-2.68-2.961
				c-0.681,0.416-1.339,0.828-1.953,1.226c-0.424,0.273-0.828,0.539-1.217,0.798l-0.181-1.103c0.281-0.177,0.567-0.356,0.866-0.539
				c0.689-0.426,1.435-0.867,2.204-1.313c-0.117-0.302-1.056-2.774-0.983-4.01c0.067-1.121,0.464-2.531,1.453-3.19
				c0.968-0.645,2.328-0.433,2.896,0.639c0.788,1.488-0.606,4.186-1.656,5.263c-0.062,0.064-0.811,0.678-1.289,1.058
				c0.315-0.18,0.619-0.359,0.946-0.541c0.644-0.364,1.297-0.708,1.999-1.081c0.345-0.168,0.694-0.338,1.046-0.51
				c0.346-0.177,0.733-0.321,1.102-0.485c0.865-0.362,1.758-0.687,2.665-0.994c-0.317-0.565-1.415-2.586-1.519-3.71
				c-0.104-1.118,0.075-2.572,0.953-3.373c0.859-0.785,2.236-0.781,2.96,0.193c1.004,1.352,0.034,4.23-0.84,5.454
				c-0.054,0.076-0.78,0.884-1.188,1.319c0.547-0.18,1.092-0.363,1.651-0.527c1.614-0.475,3.263-0.905,4.905-1.342
				c0.503-0.134,1.003-0.273,1.504-0.41c-0.115-0.2-1.472-2.574-1.589-3.833c-0.104-1.118,0.074-2.572,0.953-3.373
				c0.859-0.785,2.236-0.781,2.959,0.193c1.004,1.352,0.035,4.23-0.839,5.453c-0.066,0.092-1.112,1.253-1.393,1.535
				c1.103-0.303,2.199-0.615,3.268-0.967c1.475-0.483,2.895-1.038,4.231-1.678c-0.054-0.093-1.481-2.565-1.601-3.853
				c-0.104-1.118,0.075-2.572,0.953-3.373c0.859-0.785,2.236-0.781,2.96,0.193c1.004,1.352,0.034,4.23-0.839,5.453
				c-0.069,0.096-1.195,1.344-1.415,1.556c0.079-0.038,0.166-0.069,0.244-0.108c1.418-0.701,2.703-1.559,3.867-2.42
				c0.677-0.499,1.297-1.015,1.889-1.529c-0.313-0.433-1.722-2.428-1.958-3.576c-0.226-1.1-0.208-2.565,0.577-3.457
				c0.768-0.875,2.137-1.022,2.962-0.134c1.147,1.234,0.499,4.201-0.235,5.513c-0.04,0.071-0.526,0.752-0.887,1.242
				c0.264-0.236,0.54-0.475,0.788-0.707c0.933-0.867,1.733-1.718,2.436-2.478c0.396-0.435,0.746-0.836,1.069-1.216
				c-0.086-0.585-0.4-2.948-0.086-4.055c0.307-1.08,0.997-2.372,2.105-2.803c1.085-0.422,2.367,0.078,2.691,1.247
				c0.449,1.623-1.492,3.958-2.749,4.784c-0.109,0.071-1.935,0.993-1.94,0.962c0,0-0.004-0.028-0.005-0.035
				c-0.304,0.371-0.634,0.765-1.003,1.189c-0.688,0.777-1.472,1.648-2.39,2.538c-0.915,0.893-1.933,1.836-3.096,2.734
				c-1.164,0.901-2.435,1.789-3.863,2.535c-0.016,0.008-0.034,0.015-0.05,0.024c0.485-0.089,1.851-0.291,1.957-0.294
				c1.503-0.051,4.437,0.734,5.007,2.319c0.411,1.141-0.348,2.29-1.477,2.572c-1.153,0.288-2.463-0.368-3.337-1.073
				c-0.986-0.796-2.217-3.251-2.314-3.446c-1.366,0.698-2.825,1.303-4.335,1.834c-0.863,0.305-1.742,0.584-2.626,0.854
				c0.422-0.063,0.8-0.116,0.854-0.118c1.503-0.051,4.436,0.734,5.007,2.319c0.411,1.142-0.348,2.29-1.477,2.571
				c-1.153,0.288-2.463-0.368-3.337-1.073c-0.887-0.716-1.979-2.788-2.26-3.34c-0.34,0.1-0.679,0.203-1.02,0.302
				c-1.635,0.473-3.268,0.938-4.857,1.443c-0.56,0.178-1.105,0.373-1.65,0.567c0.375-0.056,0.691-0.099,0.74-0.101
				c1.503-0.051,4.437,0.734,5.007,2.318c0.411,1.142-0.348,2.29-1.477,2.572c-1.153,0.288-2.463-0.368-3.337-1.074
				c-0.846-0.683-1.871-2.587-2.209-3.241c-0.553,0.215-1.107,0.43-1.633,0.663c-0.356,0.168-0.71,0.304-1.057,0.493
				c-0.348,0.179-0.693,0.356-1.034,0.532c-0.645,0.363-1.313,0.732-1.934,1.101c-0.434,0.254-0.842,0.503-1.254,0.753
				c0.555-0.183,1.65-0.52,1.744-0.537c0.982-0.184,2.642-0.098,3.883,0.414c0.145-0.028,0.291-0.044,0.439-0.044
				c1.164-0.004,2.181,0.923,2.063,2.131c-0.164,1.676-2.816,3.157-4.285,3.476c-0.087,0.019-1.05,0.118-1.659,0.171
				c0.363,0.024,0.715,0.042,1.088,0.071c0.738,0.052,1.473,0.126,2.264,0.201c0.381,0.05,0.765,0.101,1.153,0.152
				c0.386,0.043,0.788,0.137,1.187,0.204c0.92,0.175,1.845,0.397,2.771,0.642c0.047-0.646,0.246-2.938,0.779-3.932
				c0.53-0.99,1.481-2.104,2.655-2.288c1.15-0.18,2.296,0.582,2.362,1.793c0.092,1.682-2.305,3.547-3.709,4.086
				c-0.088,0.033-1.138,0.306-1.719,0.445c0.555,0.151,1.111,0.299,1.668,0.471c1.608,0.494,3.221,1.044,4.832,1.586
				c0.493,0.166,0.987,0.326,1.48,0.488c0.014-0.23,0.193-2.959,0.789-4.073c0.53-0.99,1.481-2.104,2.655-2.288
				c1.15-0.18,2.296,0.582,2.362,1.793c0.092,1.681-2.304,3.547-3.708,4.086c-0.106,0.04-1.618,0.431-2.008,0.512
				c1.087,0.356,2.173,0.7,3.258,0.997c1.497,0.411,2.988,0.731,4.455,0.934c0.006-0.107,0.18-2.956,0.791-4.097
				c0.53-0.99,1.481-2.104,2.656-2.288c1.15-0.181,2.296,0.582,2.362,1.793c0.092,1.681-2.305,3.547-3.709,4.085
				c-0.11,0.042-1.738,0.462-2.038,0.517c0.087,0.012,0.176,0.034,0.263,0.045c1.57,0.197,3.115,0.191,4.561,0.115
				c0.84-0.043,1.641-0.131,2.418-0.234c-0.022-0.534-0.096-2.975,0.34-4.063c0.419-1.043,1.241-2.254,2.388-2.566
				c1.123-0.305,2.346,0.326,2.545,1.523c0.276,1.661-1.901,3.779-3.237,4.468c-0.073,0.038-0.854,0.337-1.426,0.547
				c0.35-0.052,0.712-0.099,1.047-0.155c1.256-0.209,2.394-0.477,3.399-0.723c0.571-0.144,1.084-0.286,1.562-0.424
				c0.252-0.535,1.293-2.68,2.166-3.43c0.852-0.732,2.14-1.428,3.302-1.177c1.138,0.246,1.932,1.371,1.557,2.524
				c-0.521,1.602-3.429,2.478-4.932,2.474c-0.13-0.001-2.161-0.24-2.149-0.268c0,0,0.012-0.026,0.015-0.032
				c-0.458,0.142-0.951,0.289-1.492,0.438c-1.002,0.268-2.137,0.562-3.393,0.799c-1.255,0.24-2.626,0.465-4.091,0.572
				c-1.468,0.109-3.018,0.149-4.62-0.017c-0.018-0.002-0.037-0.006-0.055-0.008c0.454,0.194,1.704,0.779,1.795,0.835
				c1.282,0.787,3.295,3.06,2.897,4.696c-0.287,1.179-1.553,1.718-2.651,1.33C488.896,282.296,488.166,281.027,487.826,279.957z"/>
            <path style="fill:#92E3A9;" d="M490.955,250.18c-0.02-0.023,1.852-0.849,1.975-0.887c1.436-0.446,4.473-0.463,5.442,0.915
				c0.698,0.992,0.269,2.3-0.746,2.87c-1.036,0.582-2.472,0.296-3.501-0.154C492.917,252.395,490.957,250.182,490.955,250.18z"/>
		</g>
        <g>
			<path style="fill:#92E3A9;" d="M262.6,279.577c0.717-1.107,1.13-4.035,1.13-4.037c0.004-0.03-2.012,0.314-2.137,0.35
				c-1.444,0.42-3.987,2.081-4.034,3.764c-0.034,1.212,1.045,2.067,2.205,1.983C260.95,281.551,261.989,280.519,262.6,279.577z"/>
            <path style="fill:#92E3A9;" d="M271.214,279.957c0.383-1.208,0.056-3.934,0.029-4.151c1.525-0.172,3.075-0.472,4.627-0.862
				c0.888-0.222,1.775-0.473,2.662-0.736c-0.387,0.181-0.731,0.345-0.777,0.373c-1.282,0.787-3.295,3.06-2.897,4.696
				c0.287,1.179,1.553,1.718,2.651,1.33c1.121-0.396,1.851-1.666,2.191-2.736c0.345-1.086,0.112-3.417,0.043-4.033
				c0.339-0.104,0.679-0.205,1.017-0.311c1.625-0.507,3.244-1.021,4.847-1.475c0.565-0.161,1.127-0.298,1.689-0.438
				c-0.344,0.161-0.631,0.299-0.673,0.324c-1.281,0.787-3.295,3.06-2.897,4.696c0.287,1.179,1.553,1.718,2.651,1.33
				c1.121-0.397,1.851-1.665,2.191-2.736c0.329-1.037,0.134-3.19,0.055-3.922c0.58-0.125,1.161-0.252,1.728-0.348
				c0.389-0.056,0.76-0.138,1.154-0.173c0.389-0.043,0.775-0.085,1.156-0.127c0.738-0.054,1.499-0.114,2.22-0.148
				c0.501-0.028,0.98-0.045,1.462-0.063c-0.564,0.153-1.663,0.477-1.751,0.514c-1.386,0.583-3.72,2.525-3.575,4.203
				c0.105,1.209,1.275,1.934,2.419,1.716c1.168-0.222,2.082-1.366,2.58-2.372c0.548-1.108,0.646-3.745,0.657-4.075
				c0.797-0.028,1.573-0.048,2.306-0.055c0.656-0.008,1.278-0.008,1.871-0.003l0.171-1.041c-0.651,0.008-1.336,0.022-2.064,0.047
				c-0.81,0.025-1.674,0.068-2.562,0.121c-0.045-0.207-0.31-1.382-0.695-2.448c1.061-0.699,2.496-2.702,2.68-2.961
				c0.681,0.416,1.339,0.828,1.953,1.226c0.424,0.273,0.829,0.539,1.217,0.798l0.181-1.103c-0.281-0.177-0.567-0.356-0.866-0.539
				c-0.689-0.426-1.435-0.867-2.204-1.313c0.117-0.302,1.056-2.774,0.983-4.01c-0.067-1.121-0.464-2.531-1.453-3.19
				c-0.968-0.645-2.328-0.433-2.896,0.639c-0.788,1.488,0.607,4.186,1.656,5.263c0.062,0.064,0.81,0.678,1.289,1.058
				c-0.315-0.18-0.62-0.359-0.946-0.541c-0.644-0.364-1.297-0.708-1.999-1.081c-0.345-0.168-0.694-0.338-1.046-0.51
				c-0.346-0.177-0.733-0.321-1.102-0.485c-0.865-0.362-1.758-0.687-2.665-0.994c0.317-0.565,1.415-2.586,1.519-3.71
				c0.104-1.118-0.075-2.572-0.953-3.373c-0.86-0.785-2.236-0.781-2.96,0.193c-1.004,1.352-0.034,4.23,0.84,5.454
				c0.054,0.076,0.78,0.884,1.188,1.319c-0.547-0.18-1.092-0.363-1.651-0.527c-1.614-0.475-3.262-0.905-4.905-1.342
				c-0.503-0.134-1.003-0.273-1.504-0.41c0.115-0.2,1.472-2.574,1.589-3.833c0.104-1.118-0.075-2.572-0.953-3.373
				c-0.859-0.785-2.236-0.781-2.959,0.193c-1.004,1.352-0.035,4.23,0.839,5.453c0.066,0.092,1.112,1.253,1.393,1.535
				c-1.103-0.303-2.199-0.615-3.268-0.967c-1.475-0.483-2.895-1.038-4.231-1.678c0.054-0.093,1.481-2.565,1.601-3.853
				c0.104-1.118-0.075-2.572-0.953-3.373c-0.859-0.785-2.236-0.781-2.959,0.193c-1.004,1.352-0.035,4.23,0.839,5.453
				c0.069,0.096,1.195,1.344,1.415,1.556c-0.079-0.038-0.166-0.069-0.244-0.108c-1.418-0.701-2.703-1.559-3.867-2.42
				c-0.677-0.499-1.297-1.015-1.889-1.529c0.313-0.433,1.722-2.428,1.958-3.576c0.226-1.1,0.208-2.565-0.576-3.457
				c-0.768-0.875-2.137-1.022-2.963-0.134c-1.146,1.234-0.499,4.201,0.235,5.513c0.04,0.071,0.526,0.752,0.888,1.242
				c-0.264-0.236-0.54-0.475-0.788-0.707c-0.933-0.867-1.734-1.718-2.437-2.478c-0.396-0.435-0.746-0.836-1.069-1.216
				c0.085-0.585,0.4-2.948,0.086-4.055c-0.307-1.08-0.997-2.372-2.105-2.803c-1.085-0.422-2.367,0.078-2.691,1.247
				c-0.449,1.623,1.493,3.958,2.749,4.784c0.109,0.071,1.935,0.993,1.94,0.962c0,0,0.004-0.028,0.005-0.035
				c0.304,0.371,0.634,0.765,1.003,1.189c0.688,0.777,1.472,1.648,2.39,2.538c0.915,0.893,1.933,1.836,3.096,2.734
				c1.164,0.901,2.435,1.789,3.863,2.535c0.016,0.008,0.034,0.015,0.05,0.024c-0.485-0.089-1.851-0.291-1.957-0.294
				c-1.503-0.051-4.437,0.734-5.007,2.319c-0.411,1.141,0.348,2.29,1.477,2.572c1.154,0.288,2.463-0.368,3.337-1.073
				c0.986-0.796,2.217-3.251,2.314-3.446c1.366,0.698,2.825,1.303,4.334,1.834c0.863,0.305,1.742,0.584,2.626,0.854
				c-0.422-0.063-0.8-0.116-0.854-0.118c-1.503-0.051-4.436,0.734-5.007,2.319c-0.411,1.142,0.348,2.29,1.477,2.571
				c1.153,0.288,2.463-0.368,3.337-1.073c0.887-0.716,1.979-2.788,2.26-3.34c0.34,0.1,0.679,0.203,1.02,0.302
				c1.635,0.473,3.268,0.938,4.857,1.443c0.56,0.178,1.104,0.373,1.65,0.567c-0.375-0.056-0.691-0.099-0.74-0.101
				c-1.503-0.051-4.437,0.734-5.007,2.318c-0.411,1.142,0.348,2.29,1.477,2.572c1.153,0.288,2.463-0.368,3.337-1.074
				c0.846-0.683,1.871-2.587,2.209-3.241c0.553,0.215,1.107,0.43,1.633,0.663c0.356,0.168,0.71,0.304,1.057,0.493
				c0.348,0.179,0.693,0.356,1.034,0.532c0.645,0.363,1.313,0.732,1.934,1.101c0.434,0.254,0.842,0.503,1.254,0.753
				c-0.555-0.183-1.65-0.52-1.744-0.537c-0.982-0.184-2.642-0.098-3.883,0.414c-0.145-0.028-0.291-0.044-0.439-0.044
				c-1.164-0.004-2.181,0.923-2.063,2.131c0.164,1.676,2.815,3.157,4.285,3.476c0.087,0.019,1.05,0.118,1.659,0.171
				c-0.363,0.024-0.715,0.042-1.088,0.071c-0.738,0.052-1.473,0.126-2.264,0.201c-0.38,0.05-0.765,0.101-1.153,0.152
				c-0.386,0.043-0.788,0.137-1.187,0.204c-0.92,0.175-1.845,0.397-2.771,0.642c-0.047-0.646-0.246-2.938-0.78-3.932
				c-0.53-0.99-1.481-2.104-2.655-2.288c-1.15-0.18-2.296,0.582-2.362,1.793c-0.092,1.682,2.305,3.547,3.709,4.086
				c0.088,0.033,1.138,0.306,1.719,0.445c-0.555,0.151-1.111,0.299-1.668,0.471c-1.608,0.494-3.221,1.044-4.832,1.586
				c-0.493,0.166-0.987,0.326-1.48,0.488c-0.014-0.23-0.193-2.959-0.789-4.073c-0.53-0.99-1.481-2.104-2.656-2.288
				c-1.15-0.18-2.296,0.582-2.362,1.793c-0.092,1.681,2.304,3.547,3.708,4.086c0.106,0.04,1.618,0.431,2.008,0.512
				c-1.087,0.356-2.173,0.7-3.259,0.997c-1.496,0.411-2.987,0.731-4.455,0.934c-0.007-0.107-0.18-2.956-0.791-4.097
				c-0.53-0.99-1.481-2.104-2.656-2.288c-1.15-0.181-2.296,0.582-2.362,1.793c-0.092,1.681,2.305,3.547,3.709,4.085
				c0.11,0.042,1.738,0.462,2.038,0.517c-0.087,0.012-0.176,0.034-0.263,0.045c-1.57,0.197-3.115,0.191-4.561,0.115
				c-0.84-0.043-1.641-0.131-2.419-0.234c0.022-0.534,0.096-2.975-0.34-4.063c-0.418-1.043-1.241-2.254-2.388-2.566
				c-1.123-0.305-2.346,0.326-2.545,1.523c-0.276,1.661,1.901,3.779,3.237,4.468c0.073,0.038,0.854,0.337,1.426,0.547
				c-0.35-0.052-0.712-0.099-1.047-0.155c-1.256-0.209-2.394-0.477-3.399-0.723c-0.571-0.144-1.084-0.286-1.562-0.424
				c-0.252-0.535-1.293-2.68-2.165-3.43c-0.852-0.732-2.14-1.428-3.302-1.177c-1.138,0.246-1.932,1.371-1.557,2.524
				c0.521,1.602,3.429,2.478,4.932,2.474c0.13-0.001,2.162-0.24,2.149-0.268c0,0-0.012-0.026-0.015-0.032
				c0.458,0.142,0.951,0.289,1.492,0.438c1.002,0.268,2.137,0.562,3.393,0.799c1.255,0.24,2.626,0.465,4.091,0.572
				c1.468,0.109,3.018,0.149,4.62-0.017c0.018-0.002,0.037-0.006,0.055-0.008c-0.454,0.194-1.704,0.779-1.795,0.835
				c-1.282,0.787-3.295,3.06-2.897,4.696c0.287,1.179,1.554,1.718,2.651,1.33C270.143,282.296,270.874,281.027,271.214,279.957z"/>
            <path style="fill:#92E3A9;" d="M268.084,250.18c0.02-0.023-1.852-0.849-1.975-0.887c-1.436-0.446-4.473-0.463-5.442,0.915
				c-0.698,0.992-0.269,2.3,0.746,2.87c1.036,0.582,2.472,0.296,3.501-0.154C266.123,252.395,268.083,250.182,268.084,250.18z"/>
		</g>
	</g>
</g>
    <g id="Squares">
	<g>
		<polyline style="fill:none;stroke:#263238;stroke-miterlimit:10;" points="520.398,368.358 528.035,368.358 528.035,385.456
			510.937,385.456 510.937,368.358 516.6,368.358 		"/>
        <rect x="510.937" y="396.337" style="fill:none;stroke:#263238;stroke-miterlimit:10;" width="17.098" height="17.098"/>
        <rect x="510.937" y="424.315" style="fill:none;stroke:#263238;stroke-miterlimit:10;" width="17.098" height="17.098"/>
        <line style="fill:none;stroke:#263238;stroke-miterlimit:10;" x1="537.621" y1="377.166" x2="583.216" y2="377.166"/>
        <line style="fill:none;stroke:#263238;stroke-miterlimit:10;" x1="537.621" y1="406.181" x2="583.216" y2="406.181"/>
        <line style="fill:none;stroke:#263238;stroke-miterlimit:10;" x1="537.621" y1="434.678" x2="583.216" y2="434.678"/>
        <rect x="599.018" y="368.358" style="fill:none;stroke:#263238;stroke-miterlimit:10;" width="17.098" height="17.098"/>
        <polyline style="fill:none;stroke:#263238;stroke-miterlimit:10;" points="604.633,413.435 599.018,413.435 599.018,396.337
			616.116,396.337 616.116,413.435 609.811,413.435 		"/>
        <rect x="599.018" y="424.315" style="fill:none;stroke:#263238;stroke-miterlimit:10;" width="17.098" height="17.098"/>
        <line style="fill:none;stroke:#263238;stroke-miterlimit:10;" x1="625.701" y1="377.166" x2="671.296" y2="377.166"/>
        <line style="fill:none;stroke:#263238;stroke-miterlimit:10;" x1="625.701" y1="406.181" x2="671.296" y2="406.181"/>
        <line style="fill:none;stroke:#263238;stroke-miterlimit:10;" x1="625.701" y1="434.678" x2="671.296" y2="434.678"/>
	</g>
</g>
    <g id="Globe">
	<g>
		<path style="fill:none;stroke:#263238;stroke-miterlimit:10;" d="M676.504,297.091c4.911-12.454,6.284-26.457,3.163-40.509
			c-8.322-37.473-45.445-61.104-82.918-52.782c-37.473,8.322-61.104,45.445-52.782,82.918c8.322,37.473,45.445,61.104,82.917,52.782
			c20.514-4.556,36.879-17.742,46.126-34.893"/>
        <g>
			<path style="fill:none;stroke:#263238;stroke-linecap:round;stroke-linejoin:round;stroke-miterlimit:10;" d="M597.861,335.953
				c3.695,0.804,7.483,1.294,11.329,1.445"/>
            <path style="fill:none;stroke:#263238;stroke-linecap:round;stroke-linejoin:round;stroke-miterlimit:10;" d="M589.341,333.485
				c1.883,0.687,3.802,1.289,5.75,1.802"/>
            <path style="fill:none;stroke:#263238;stroke-linecap:round;stroke-linejoin:round;stroke-miterlimit:10;" d="M548.53,253.646
				c-2.905,10.179-3.39,21.206-0.934,32.265c4.858,21.875,20.085,38.767,39.364,46.653"/>
            <path style="fill:none;stroke:#263238;stroke-linecap:round;stroke-linejoin:round;stroke-miterlimit:10;" d="M557.376,234.719
				c-2.373,3.5-4.41,7.226-6.076,11.124"/>
		</g>
        <polygon style="fill:none;stroke:#263238;stroke-linecap:round;stroke-linejoin:round;stroke-miterlimit:10;" points="
			602.401,240.78 609.486,242.248 611.901,244.753 615.05,245.237 616.052,248.225 615.318,250.247 613.171,251.231
			607.911,250.371 607.768,249.727 610.255,247.992 608.538,244.825 603.832,244.18 601.328,242.033 		"/>
        <path style="fill:none;stroke:#263238;stroke-linecap:round;stroke-linejoin:round;stroke-miterlimit:10;" d="M659.503,306.165
			l-5.618-0.949l-6.781-0.86l-4.992,1.109l-4.884,0.071l-4.903,2.271l-2.863,0.805l-1.772,0.393l-2.952,2.683l-2.935,2.003
			l-4.956-1.772l0.126-4.759l-2.988-0.519l-3.221,0.715l-0.805-1.342l-0.322-2.97l-1.485-1.36l-2.183,0.823l-0.287,1.753
			l-2.702,0.769l-3.059-2.362l-1.824-3.65l1.414-5.045l4.741-0.715l1.539,0.841l1.932-0.429l2.094-1.986l2.236,0.179l4.007,4.348
			l1.091-0.411l-1.145-3.632l-1.395-1.718l-0.357-3.131l5.386-3.9l-0.518-6.137l2.112-2.666l1.271-4.169l1.539-0.68l3.167-3.238
			l-0.125-1.324l-2.541,0.733l-0.769-1.181l-1.771,0.393l-2.594,1.252l0.823-2.379l5.279-2.862l0.966-1.735l3.041,3.042l1.771,1.127
			l2.111-1.145l-1.431-1.879l-3.918-1.665l-4.83-3.49l-4.634-1.843l-4.008,0.214l-2.361-1.503l-2.72-0.072l-0.179,0.716l0.715,4.741
			l1.002,1.467l-0.305,5.475l-3.793-1.861l-0.018-2.362l-3.739-0.859l-1.843-1.449l-0.089-4.205l3.919-4.419l-0.536-3.936
			l-1.735,0.554l-1.449-1.199l-1.02-2.308l-1.163,0.089l-0.072,2.72l-1.7,0.715l-2.057-5.457l-1.467-0.519l-2.469-0.466l-2.29,1.861
			l3.9,2.344l1.252,2.594l-6.763-3.06l-4.991-3.454l-1.288-4.276l-4.473-0.358l-2.756,2.809c0,0-1.396,1.324-2.129,1.825
			c-0.734,0.501-3.722,1.502-3.722,1.502l-0.036,2.881l-3.668,0.984l0.715,1.7l6.173-0.357l3.81,2.702l1.252,5.636l-0.663,5.385
			l1.502,5.242l-2.757,8.892l1.645,11.97l2.951,6.441l3.238,4.688l2.487-0.214l-1.377-2.398l-1.717-1.647l-1.592-3.364l1.378-0.644
			l3.542,5.297l2.755,4.795l0.93,4.187l3.882,3.024l6.369,2.81l8.874,0.395l3.113,1.843l2.504,2.147l3.292,1.128l3.757,0.179
			l3.507-0.948c0,0,0.197,1.646,0.376,2.451c0.179,0.805-1.468,4.043-1.468,4.043l-1.056,3.614l2.075,3.257l3.865,0.662l6.136,4.045
			l2.469,0.466l0.536,2.415l0.531,1.062c12.355-4.912,22.712-13.144,30.243-23.4l-0.176-1.186l2.596-8.856l-2.415-0.984
			L659.503,306.165z"/>
        <path style="fill:none;stroke:#263238;stroke-linecap:round;stroke-linejoin:round;stroke-miterlimit:10;" d="M662.124,238.839
			l-2.451-2.666l-3.041-3.042l-1.717-4.688l3.006-0.161l-0.196-1.646l-2.129,0.304l1.593-1.199l1.682-1.556l-0.358-1.61
			l-2.505-2.148l-1.182-3.374c-15.82-12.448-36.892-17.958-58.077-13.253c-9.63,2.139-18.343,6.183-25.838,11.644l4.297,1.806
			l-1.611,3.399l-2.917,1.324l0.644,4.419l-1.181,0.769l-1.217,2.129l0.805,2.863l2.809-0.286l-0.519,2.988l2.738-0.608l3.347-6.995
			l-0.089-2.684l4.437-1.323l0.698-2.183l4.563-1.52l-0.125-2.845l3.346-0.912c0,0,2.129-1.825,2.612-1.932
			c0.483-0.107,2.916,0.197,2.916,0.197l2.845,1.396l3.382-0.751l2.505-2.415l3.775-0.501c0,0,1.109,0.43,1.915,0.251
			c0.805-0.179,2.97-1.842,2.97-1.842l5.314,1.861l2.254,1.02l0.536,2.415l2.487-0.214l0.483-1.628l2.308,0.501l0.125,1.324
			l-4.545,2.361l3.524,2.935l6.512,1.933l3.131,2.684l3.614-0.465l0.448-1.789l1.217-0.608l-4.902-2.291l-2.648,0.25l1.95-1.109
			l-2.54-2.308l2.702-0.769l3.972,1.146l1.663,3.686l2.236,1.7l2.486,4.348l4.115,1.79l1.18,5.314l4.24,1.593l0.233,1.807
			l-0.018,2.201l1.61,2.684l0.644,1.378l2.845-0.125l0.68-3.024L662.124,238.839z"/>
        <path style="fill:none;stroke:#263238;stroke-linecap:round;stroke-linejoin:round;stroke-miterlimit:10;" d="M660.615,222.151
			l0.205,0.924l-0.233,2.755l0.984,2.147l1.914,0.251l0.68,3.06l-2.111-0.376l1.448,8.803l-1.146,3.972l2.289,4.223l2.523,1.467
			l1.931,8.696l3.595,6.298l3.399,4.652l3.918,0.144l0.573-3.507l0.434-0.527c-0.271-2.84-0.717-5.695-1.352-8.552
			C676.65,242.998,669.846,231.235,660.615,222.151z"/>
        <polygon style="fill:none;stroke:#263238;stroke-linecap:round;stroke-linejoin:round;stroke-miterlimit:10;" points="
			623.193,229.404 611.528,227.094 606.894,228.292 606.446,231.602 604.049,229.938 600.685,231.53 601.543,236.915
			604.907,238.365 606.321,234.841 609.272,236.72 615.23,239.959 617.233,244.415 622.6,248.799 629.113,246.169 628.416,243.79
			626.359,241.374 624.606,235.004 625.608,231.909 		"/>
        <polygon style="fill:none;stroke:#263238;stroke-linecap:round;stroke-linejoin:round;stroke-miterlimit:10;" points="
			632.676,231.016 630.117,230.908 628.417,233.144 630.581,237.564 632.675,237.099 		"/>
        <polygon style="fill:none;stroke:#263238;stroke-linecap:round;stroke-linejoin:round;stroke-miterlimit:10;" points="
			648.331,230.749 642.212,229.067 640.656,227.385 639.475,228.154 641.317,231.124 643.213,235.096 645.843,235.526
			646.183,234.775 644.198,232.681 648.742,233.362 		"/>
        <polygon style="fill:none;stroke:#263238;stroke-linecap:round;stroke-linejoin:round;stroke-miterlimit:10;" points="
			614.22,299.324 613.719,300.111 618.871,300.488 621.304,302.313 624.435,301.956 625.169,299.934 621.322,300.112 		"/>
        <polygon style="fill:none;stroke:#263238;stroke-linecap:round;stroke-linejoin:round;stroke-miterlimit:10;" points="
			629.231,299.201 626.064,300.918 626.833,302.099 631.02,301.169 631.539,299.702 630.125,300.185 		"/>
	</g>
</g>
    <g id="Rulers">
	<g>
		<polyline style="fill:none;stroke:#263238;stroke-miterlimit:10;" points="604.467,164.951 552.114,203.238 607.589,28.012
			671.75,115.745 611.898,159.516 		"/>
        <polygon style="fill:none;stroke:#263238;stroke-miterlimit:10;" points="617.273,79.514 638.938,109.138 598.541,138.681 		"/>
        <line style="fill:none;stroke:#263238;stroke-miterlimit:10;" x1="616.055" y1="38.89" x2="612.255" y2="41.669"/>
        <line style="fill:none;stroke:#263238;stroke-miterlimit:10;" x1="620.757" y1="45.32" x2="616.957" y2="48.099"/>
        <line style="fill:none;stroke:#263238;stroke-miterlimit:10;" x1="625.459" y1="51.75" x2="621.66" y2="54.528"/>
        <line style="fill:none;stroke:#263238;stroke-miterlimit:10;" x1="630.161" y1="58.179" x2="626.362" y2="60.958"/>
        <line style="fill:none;stroke:#263238;stroke-miterlimit:10;" x1="634.863" y1="64.609" x2="631.064" y2="67.387"/>
        <line style="fill:none;stroke:#263238;stroke-miterlimit:10;" x1="639.565" y1="71.039" x2="635.766" y2="73.817"/>
        <line style="fill:none;stroke:#263238;stroke-miterlimit:10;" x1="644.267" y1="77.468" x2="640.468" y2="80.247"/>
        <line style="fill:none;stroke:#263238;stroke-miterlimit:10;" x1="648.969" y1="83.898" x2="645.17" y2="86.676"/>
        <line style="fill:none;stroke:#263238;stroke-miterlimit:10;" x1="653.672" y1="90.327" x2="649.872" y2="93.106"/>
        <line style="fill:none;stroke:#263238;stroke-miterlimit:10;" x1="658.374" y1="96.757" x2="654.574" y2="99.536"/>
        <line style="fill:none;stroke:#263238;stroke-miterlimit:10;" x1="663.076" y1="103.187" x2="659.276" y2="105.965"/>
        <line style="fill:none;stroke:#263238;stroke-miterlimit:10;" x1="667.778" y1="109.616" x2="663.979" y2="112.395"/>
	</g>
        <g>
		<polyline style="fill:none;stroke:#263238;stroke-miterlimit:10;" points="553.913,30.669 564.883,5.463 587.076,15.122
			523.734,160.668 501.541,151.009 551.114,37.1 		"/>
            <line style="fill:none;stroke:#263238;stroke-miterlimit:10;" x1="584.38" y1="21.315" x2="578.703" y2="18.844"/>
            <line style="fill:none;stroke:#263238;stroke-miterlimit:10;" x1="581.011" y1="29.057" x2="575.334" y2="26.586"/>
            <line style="fill:none;stroke:#263238;stroke-miterlimit:10;" x1="577.642" y1="36.799" x2="571.964" y2="34.328"/>
            <line style="fill:none;stroke:#263238;stroke-miterlimit:10;" x1="574.273" y1="44.541" x2="568.595" y2="42.07"/>
            <line style="fill:none;stroke:#263238;stroke-miterlimit:10;" x1="570.903" y1="52.282" x2="565.226" y2="49.812"/>
            <line style="fill:none;stroke:#263238;stroke-miterlimit:10;" x1="567.534" y1="60.024" x2="561.857" y2="57.553"/>
            <line style="fill:none;stroke:#263238;stroke-miterlimit:10;" x1="564.165" y1="67.766" x2="558.487" y2="65.295"/>
            <line style="fill:none;stroke:#263238;stroke-miterlimit:10;" x1="560.796" y1="75.508" x2="555.118" y2="73.037"/>
            <line style="fill:none;stroke:#263238;stroke-miterlimit:10;" x1="557.426" y1="83.25" x2="551.749" y2="80.779"/>
            <line style="fill:none;stroke:#263238;stroke-miterlimit:10;" x1="554.057" y1="90.992" x2="548.38" y2="88.521"/>
            <line style="fill:none;stroke:#263238;stroke-miterlimit:10;" x1="550.688" y1="98.733" x2="545.01" y2="96.262"/>
            <line style="fill:none;stroke:#263238;stroke-miterlimit:10;" x1="547.319" y1="106.475" x2="541.641" y2="104.004"/>
            <line style="fill:none;stroke:#263238;stroke-miterlimit:10;" x1="543.949" y1="114.217" x2="538.272" y2="111.746"/>
            <line style="fill:none;stroke:#263238;stroke-miterlimit:10;" x1="540.58" y1="121.959" x2="534.903" y2="119.488"/>
            <line style="fill:none;stroke:#263238;stroke-miterlimit:10;" x1="537.211" y1="129.701" x2="531.534" y2="127.23"/>
            <line style="fill:none;stroke:#263238;stroke-miterlimit:10;" x1="533.842" y1="137.442" x2="528.164" y2="134.972"/>
            <line style="fill:none;stroke:#263238;stroke-miterlimit:10;" x1="530.472" y1="145.184" x2="524.795" y2="142.714"/>
            <line style="fill:none;stroke:#263238;stroke-miterlimit:10;" x1="527.103" y1="152.926" x2="521.426" y2="150.455"/>
	</g>
</g>
    <g id="Equation">
	<g>
		<path style="fill:#263238;" d="M393.002,33.172h-2.955c-0.2,0-0.712,0.028-1.511,0.073c-18.803,1.056-37.863,0.468-56.653-1.756
			c-30.233-3.581-30.75-3.123-32.685-1.419c-0.112,0.098-0.229,0.202-0.362,0.309c-1.992,1.594-6.642,20.761-8.29,27.779
			l-4.973-8.171c-0.211-0.347-0.661-0.456-1.01-0.246c-0.347,0.211-0.457,0.663-0.246,1.01l5.909,9.708
			c0.135,0.222,0.374,0.353,0.628,0.353c0.039,0,0.078-0.003,0.117-0.009c0.295-0.047,0.532-0.269,0.599-0.56
			c2.588-11.215,6.839-27.54,8.185-28.716c0.153-0.123,0.287-0.24,0.415-0.353c1.388-1.222,1.961-1.727,31.542,1.776
			c18.875,2.235,38.022,2.827,56.908,1.764c0.756-0.042,1.239-0.07,1.428-0.07h2.22v4.33c0,0.406,0.329,0.735,0.735,0.735
			c0.406,0,0.735-0.329,0.735-0.735v-5.065C393.737,33.501,393.408,33.172,393.002,33.172z"/>
        <path style="fill:#263238;" d="M299.295,60.812c0.374,0,0.693-0.283,0.731-0.663l2.111-21.527c0.039-0.404-0.256-0.764-0.66-0.803
			c-0.406-0.038-0.764,0.255-0.803,0.66l-2.111,21.527c-0.039,0.404,0.256,0.764,0.66,0.803
			C299.247,60.811,299.272,60.812,299.295,60.812z"/>
        <path style="fill:#263238;" d="M310.87,42.48c-0.394-0.102-0.793,0.14-0.891,0.535l-0.869,3.476
			c-0.119-0.125-0.276-0.215-0.461-0.232l-3.436-0.312l3.143-4.889c0.22-0.342,0.121-0.797-0.22-1.016
			c-0.342-0.221-0.797-0.121-1.016,0.22l-3.799,5.909c-0.139,0.216-0.155,0.489-0.042,0.72c0.113,0.231,0.338,0.386,0.594,0.41
			l4.644,0.422c0.023,0.002,0.045,0.003,0.067,0.003c0.081,0,0.156-0.019,0.229-0.044l-1.366,5.462
			c-0.099,0.393,0.141,0.792,0.535,0.891c0.06,0.015,0.12,0.022,0.179,0.022c0.329,0,0.629-0.222,0.712-0.557l2.533-10.131
			C311.503,42.978,311.264,42.579,310.87,42.48z"/>
        <path style="fill:#263238;" d="M287.59,42.334c0.256,0.098,0.547,0.046,0.754-0.139l3.974-3.563l0.251,3.768
			c0.026,0.388,0.35,0.686,0.733,0.686c0.016,0,0.033-0.001,0.049-0.001c0.405-0.027,0.711-0.378,0.685-0.782l-0.352-5.274
			c-0.019-0.281-0.196-0.526-0.456-0.632c-0.26-0.107-0.558-0.055-0.768,0.133l-4.029,3.612l-0.375-3.495
			c-0.043-0.403-0.395-0.689-0.809-0.653c-0.403,0.043-0.695,0.406-0.652,0.809l0.527,4.922
			C287.152,42,287.332,42.235,287.59,42.334z"/>
        <path style="fill:#263238;" d="M324.513,43.796c0.215-0.345,0.111-0.798-0.233-1.013c-0.301-0.188-0.108-1.652,0.008-2.525
			c0.212-1.596,0.451-3.406-0.278-4.759c-0.39-0.723-0.966-0.809-1.26-0.8c-1.113,0.042-2.367,1.767-3.399,3.626v-3.708
			c0-0.406-0.329-0.735-0.735-0.735c-0.406,0-0.735,0.329-0.735,0.735v6.855c0,0.347,0.243,0.647,0.582,0.719
			c0.345,0.075,0.684-0.104,0.825-0.421c1.201-2.7,2.75-5.198,3.433-5.565c0.497,0.936,0.291,2.489,0.11,3.859
			c-0.223,1.684-0.433,3.275,0.67,3.964c0.121,0.076,0.256,0.112,0.389,0.112C324.134,44.141,324.374,44.019,324.513,43.796z"/>
        <path style="fill:#263238;" d="M326.319,50.965c0,0.406,0.329,0.735,0.735,0.735c0.406,0,0.735-0.329,0.735-0.735v-1.55h2.078
			c0.406,0,0.735-0.329,0.735-0.735s-0.329-0.735-0.735-0.735h-2.078v-1.726c0-0.406-0.329-0.735-0.735-0.735
			c-0.406,0-0.735,0.329-0.735,0.735v1.726h-2.077c-0.406,0-0.735,0.329-0.735,0.735s0.329,0.735,0.735,0.735h2.077V50.965z"/>
        <path style="fill:#263238;" d="M351.818,44.129c-1.154,0.601-1.665,1.793-1.404,3.272c0.264,1.499,1.195,2.586,1.944,3.458
			c1.089,1.27,1.179,1.541,0.696,2.072c-0.781,0.86-3.358-0.485-5.211-1.867c0.709-1.214,1.188-2.76,1.038-4.556
			c-0.134-1.608-0.67-2.544-1.594-2.782c-1.527-0.394-3.18,1.516-3.441,1.908l1.223,0.815c0.278-0.416,1.404-1.41,1.852-1.3
			c0.131,0.034,0.405,0.387,0.496,1.481c0.198,2.383-1.003,4.416-2.281,5.375c-0.782,0.586-1.576,0.787-2.173,0.558
			c-1.282-0.493-1.075-3.677-0.774-5.142c0.073-0.357-0.126-0.715-0.47-0.84c-0.34-0.121-0.726,0.023-0.898,0.344
			c-0.787,1.468-2.923,4.459-4.398,4.361c-0.22-0.016-0.5-0.096-0.706-0.575c-0.559-1.297-0.012-4.141,1.046-5.434
			c0.136-0.167,0.238-0.258,0.303-0.307c0.132,0.213,0.283,0.722,0.332,1.153l1.461-0.163c-0.055-0.497-0.319-2.142-1.391-2.459
			c-0.615-0.183-1.235,0.103-1.842,0.845c-1.261,1.542-2.104,4.985-1.258,6.947c0.378,0.878,1.071,1.396,1.951,1.458
			c1.58,0.113,3.083-1.29,4.172-2.664c0.051,1.571,0.471,3.281,1.945,3.848c0.332,0.127,0.683,0.189,1.046,0.189
			c0.824,0,1.707-0.322,2.536-0.944c0.324-0.243,0.653-0.558,0.97-0.918c1.217,0.914,3.487,2.41,5.335,2.41
			c0.696,0,1.329-0.214,1.82-0.753c1.429-1.572,0.266-2.928-0.668-4.018c-0.697-0.812-1.418-1.653-1.613-2.757
			c-0.148-0.84,0.066-1.416,0.636-1.713c0.658-0.344,1.69-0.222,2.164,0.251c1.008,1.008,1.212,1.593,1.213,1.593c0,0,0,0,0-0.001
			l1.426-0.356c-0.037-0.151-0.291-0.967-1.599-2.275C354.764,43.709,353.06,43.483,351.818,44.129z"/>
        <path style="fill:#263238;" d="M365.477,46.324c-1.288,0.92-2.548,1.606-3.559,2.158c-1.618,0.882-2.595,1.415-2.695,2.317
			c-0.05,0.451,0.142,0.871,0.572,1.247c1.072,0.937,3.926,1.115,5.939,1.115c0.908,0,1.645-0.036,1.971-0.055l-0.086-1.467
			c-2.283,0.133-5.816,0.02-6.861-0.728c0.294-0.283,1.154-0.751,1.863-1.138c1.046-0.57,2.349-1.28,3.71-2.253
			c1.944-1.388,2.885-2.665,2.879-3.904c-0.006-1.316-1.048-2.197-1.831-2.745c-0.484-0.338-1.024-0.422-1.559-0.248
			c-1.628,0.538-2.701,3.538-2.899,4.133l1.394,0.465c0.386-1.157,1.277-2.975,1.966-3.203c0.066-0.021,0.13-0.031,0.255,0.056
			c0.807,0.566,1.201,1.072,1.204,1.548C367.742,44.116,367.351,44.984,365.477,46.324z"/>
        <path style="fill:#263238;" d="M382.406,51.707c-0.23,0.253-0.847,0.773-1.603,0.112c-0.395-0.346-0.251-1.069,0.018-2.221
			c0.26-1.117,0.585-2.506,0.208-3.92c-0.218-0.821-0.79-0.99-1.025-1.026c-1.189-0.178-3.038,1.919-4.749,4.366l0.52-4.472
			l-1.46-0.169l-0.879,7.559c-0.04,0.342,0.163,0.665,0.488,0.779c0.324,0.113,0.685-0.014,0.866-0.306
			c1.871-3.017,3.976-5.697,4.851-6.215c0.228,1.016-0.016,2.06-0.252,3.071c-0.312,1.336-0.634,2.717,0.445,3.662
			c0.566,0.494,1.148,0.684,1.688,0.684c0.833,0,1.567-0.451,1.986-0.93L382.406,51.707z"/>

        <rect x="378.558" y="46.451" transform="matrix(0.1455 -0.9894 0.9894 0.1455 283.9931 423.1964)" style="fill:#263238;" width="16.88" height="1.47"/>
        <path style="fill:#263238;" d="M302.395,84.549c-0.089,0.033-0.355,0.132-0.828-0.126c-0.422-0.302-0.173-2.854-0.04-4.226
			c0.31-3.179,0.662-6.784-1.699-7.44c-0.43-0.117-1.096-0.141-1.84,0.423c-1.451,1.103-2.653,4.116-3.502,6.959
			c-0.033-2.697-0.071-5.755-0.097-7.912l-1.47,0.017l0.085,6.951c0.044,3.553,0.067,5.463,0.153,6.488
			c-0.042,0.243-0.063,0.397-0.063,0.442l0.111,0.001c0.103,0.709,0.272,0.744,0.578,0.744c0.016,0,0.033,0,0.05,0
			c0.38-0.003,0.698-0.338,0.73-0.717c0.072-0.852,2.115-10.277,4.367-11.843c0.252-0.174,0.401-0.166,0.503-0.138
			c1.171,0.325,0.858,3.536,0.629,5.881c-0.271,2.771-0.484,4.96,0.797,5.659c0.886,0.482,1.609,0.38,2.06,0.208
			c1.212-0.462,1.741-1.855,1.797-2.013l-1.383-0.497C303.248,83.647,302.889,84.364,302.395,84.549z"/>
        <path style="fill:#263238;" d="M320.046,80.435c0.043-0.281-0.078-0.561-0.312-0.72l-7.735-5.274l-0.828,1.215l6.462,4.405
			l-7.313,2.194l0.422,1.408l8.789-2.637C319.802,80.944,320.003,80.714,320.046,80.435z"/>

        <rect x="312.71" y="84.509" transform="matrix(0.9387 -0.3447 0.3447 0.9387 -9.9372 114.5978)" style="fill:#263238;" width="9.176" height="1.47"/>
        <path style="fill:#263238;" d="M334.734,83.823c-0.266-0.332,0.16-2.136,0.416-3.214c0.391-1.651,0.794-3.358,0.535-4.65
			c-0.224-1.12-0.896-1.417-1.276-1.494c-2.068-0.423-5.255,3.695-6.796,5.903v-3.914h-1.47v6.254
			c-0.675,1.285-0.782,2.098-0.391,2.646c0.24,0.336,0.616,0.47,0.967,0.47c0.123,0,0.242-0.016,0.352-0.047
			c0.32-0.087,0.542-0.377,0.542-0.709V83.09c0.221-0.392,0.52-0.878,0.927-1.476c2.916-4.288,5.122-5.846,5.57-5.712
			c0.001,0.001,0.078,0.068,0.133,0.345c0.195,0.978-0.187,2.595-0.525,4.024c-0.455,1.922-0.815,3.441-0.217,4.354
			c0.224,0.342,0.562,0.563,0.979,0.639c2.458,0.456,3.735-2.234,3.788-2.348l-1.335-0.616
			C336.926,82.316,336.107,84.051,334.734,83.823z"/>
        <path style="fill:#263238;" d="M344.085,81.689c-0.911-0.261-1.888-0.024-2.748,0.663c-0.788,0.629-1.394,1.578-1.705,2.673
			c-0.678,2.388,0.215,4.663,2.033,5.18c0.246,0.069,0.494,0.103,0.741,0.103c1.583,0,3.125-1.375,3.712-3.439
			C346.797,84.482,345.904,82.207,344.085,81.689z M344.704,86.467c-0.439,1.541-1.647,2.602-2.638,2.324
			c-0.991-0.282-1.459-1.822-1.021-3.364c0.225-0.791,0.665-1.493,1.209-1.926c0.225-0.18,0.635-0.443,1.102-0.443
			c0.106,0,0.216,0.014,0.327,0.045C344.675,83.385,345.143,84.925,344.704,86.467z"/>
        <ellipse style="fill:#263238;" cx="352.016" cy="77.597" rx="1.23" ry="1.67"/>
        <ellipse style="fill:#263238;" cx="352.192" cy="81.992" rx="1.23" ry="1.67"/>
        <path style="fill:#263238;" d="M366.56,66.638l-0.961-1.112c-0.133,0.114-13.153,11.661-4.049,30.584l1.325-0.637
			C354.271,77.59,366.054,67.077,366.56,66.638z"/>
        <path style="fill:#263238;" d="M382.386,66.549c0.101,0.123,9.927,12.448-0.061,29.04l1.259,0.758
			c10.517-17.469,0.046-30.599-0.061-30.729L382.386,66.549z"/>
        <path style="fill:#263238;" d="M369.505,79.471c0.411-0.866,0.83-1.731,1.255-2.475c0.296-0.519,0.488-0.651,0.49-0.682
			c0.418,0.235,1.037,2.092,1.308,3.94l1.454-0.213c-0.213-1.455-0.881-4.87-2.486-5.174c-0.742-0.147-1.433,0.33-2.043,1.4
			c-0.08,0.14-0.157,0.302-0.236,0.448c-0.195-0.532-0.494-1.001-0.957-1.365c-0.83-0.652-1.566-0.59-2.039-0.421
			c-1.909,0.675-2.833,4.329-2.999,5.054l1.432,0.328c0.329-1.436,1.211-3.699,2.057-3.997c0.083-0.028,0.276-0.094,0.64,0.192
			c0.602,0.473,0.726,1.469,0.67,2.596c-0.059,0.124-0.12,0.248-0.178,0.372c-1.296,2.748-2.77,5.872-4.296,5.575
			c-0.749-0.14-1.257-0.402-1.467-0.757c-0.207-0.349-0.088-0.726-0.087-0.731l-1.381-0.502c-0.037,0.102-0.346,1.02,0.184,1.949
			c0.433,0.759,1.267,1.259,2.48,1.486c0.17,0.033,0.336,0.048,0.497,0.048c1.484,0,2.645-1.294,3.674-3.042
			c-0.119,1.175-0.048,2.102,0.577,2.649c0.522,0.457,1.196,0.693,1.952,0.693c0.291,0,0.594-0.034,0.905-0.105
			c1.293-0.294,2.475-1.149,2.874-2.08l-1.351-0.58c-0.184,0.43-0.944,1.021-1.849,1.227c-0.374,0.085-1.077,0.164-1.563-0.26
			c-0.301-0.263-0.004-2.098,0.156-3.083C369.312,81.143,369.443,80.294,369.505,79.471z"/>
        <path style="fill:#263238;" d="M380.636,85.101c-0.147-0.055-0.661-0.187-1.092,0.419c-0.282,0.395-1.049,1.126-1.792,1.833
			c-0.113,0.108-0.222,0.211-0.326,0.312c-0.131-1.212-0.392-2.506-0.611-3.463l-1.433,0.327c0.39,1.708,0.638,3.469,0.663,4.521
			c-0.66,0.734-0.853,1.181-0.667,1.649c0.052,0.13,0.271,0.554,0.896,0.554c0.331,0,0.63-0.147,0.843-0.414
			c0.203-0.255,0.316-0.665,0.363-1.169c0.402-0.411,0.896-0.881,1.285-1.252c0.408-0.389,0.806-0.768,1.148-1.113
			c0.011,0.942-0.05,2.308-0.152,3.503l1.464,0.125C381.692,85.49,381.107,85.274,380.636,85.101z"/>
        <path style="fill:#263238;" d="M399.335,65.402c0.515-16.834,9.652-32.718,9.745-32.877l-1.27-0.739
			c-0.094,0.161-9.417,16.356-9.944,33.571c-0.532,17.373,9.491,26.391,9.918,26.767l0.97-1.104
			C408.655,90.933,398.824,82.09,399.335,65.402z"/>
        <path style="fill:#263238;" d="M473.739,32.365c0.102,0.166,10.158,16.766,6.246,30.885c-3.925,14.167-14.226,22.21-14.33,22.29
			l0.894,1.166c0.439-0.337,10.79-8.405,14.852-23.064c4.082-14.729-5.98-31.347-6.411-32.046L473.739,32.365z"/>
        <path style="fill:#263238;" d="M413.892,65.37c-1.106,0.276-2.105,2.011-2.908,4.005l0.128-2.015l-1.467-0.093l-0.527,8.262
			c-0.025,0.381,0.248,0.718,0.626,0.774c0.036,0.005,0.072,0.008,0.108,0.008c0.336,0,0.636-0.23,0.715-0.566
			c0.941-4,2.581-8.433,3.592-8.916c0.547,0.749,0.661,4.935,0.235,9.201l1.463,0.146c0.272-2.723,0.739-9.199-0.796-10.526
			C414.73,65.364,414.314,65.264,413.892,65.37z"/>
        <path style="fill:#263238;" d="M426.727,66.293l0.175-0.002v-1.47l-0.2,0.003c-2.747,0.047-3.564-0.267-3.783-0.4
			c0.121-0.267,0.57-0.782,0.879-1.136c1.039-1.191,2.611-2.992,1.212-4.702c-0.644-0.787-1.306-0.863-1.753-0.789
			c-1.448,0.246-2.332,2.49-2.494,2.937l1.381,0.503c0.324-0.886,0.975-1.926,1.36-1.991c0.1-0.017,0.254,0.129,0.368,0.27
			c0.522,0.638,0.034,1.413-1.181,2.805c-0.682,0.782-1.271,1.456-1.271,2.18c0,0.345,0.138,0.662,0.398,0.919
			c0.613,0.603,1.96,0.878,4.335,0.878C426.339,66.298,426.529,66.297,426.727,66.293z"/>
        <path style="fill:#263238;" d="M412.434,48.534c0.387,0.042,0.733-0.253,0.782-0.64c0.271-2.128,1.56-7.676,4.227-7.797
			c0.358-0.027,0.656,0.097,0.911,0.356c1.487,1.517,1.14,6.804,1.009,8.794c-0.03,0.464-0.052,0.817-0.052,1.015h1.47
			c0-0.179,0.022-0.499,0.049-0.918c0.169-2.575,0.52-7.933-1.426-9.919c-0.545-0.557-1.239-0.831-2.028-0.796
			c-1.906,0.087-3.198,1.661-4.057,3.48l0.079-4.667l-1.47-0.024l-0.176,10.372C411.746,48.179,412.046,48.506,412.434,48.534z"/>
        <polygon style="fill:#263238;" points="433.726,46.219 435.196,46.219 435.196,43.086 436.571,43.086 436.571,41.617
			435.196,41.617 435.196,39.714 433.726,39.714 433.726,41.617 431.824,41.617 431.824,43.086 433.726,43.086 		"/>
        <path style="fill:#263238;" d="M441.492,48.184c0.012,0,0.025,0,0.037-0.001c0.391-0.019,0.698-0.342,0.698-0.734v-0.804
			c0.075-1.1,0.486-3.246,2.421-5.181c2.462-2.462,3.411-2.628,3.763-2.51c0.359,0.123,0.647,0.818,0.79,1.909
			c0.515,3.944,0.521,7.081,0.521,7.112h1.47c0-0.131-0.006-3.258-0.534-7.301c-0.23-1.766-0.81-2.784-1.774-3.111
			c-1.258-0.427-2.838,0.426-5.275,2.862c-0.564,0.563-1.016,1.143-1.382,1.717v-3.834h-1.47v8.331
			c-0.03,0.515-0.001,0.839,0.004,0.883C440.8,47.9,441.117,48.184,441.492,48.184z"/>
        <rect x="453.446" y="43.374" style="fill:#263238;" width="4.57" height="1.47"/>
        <path style="fill:#263238;" d="M464.373,40.114l0.116,7.347l1.47-0.023l-0.176-11.075c-0.006-0.35-0.258-0.648-0.602-0.711
			c-0.346-0.066-0.685,0.124-0.816,0.45c0,0-0.706,1.766-1.236,3.178c-0.456,1.216-1.896,2.509-1.911,2.522l0.977,1.099
			C462.261,42.843,463.703,41.552,464.373,40.114z"/>
        <path style="fill:#263238;" d="M425.577,38.605c1.425,0,3.105-0.205,4.608-0.45l-0.237-1.451
			c-2.638,0.432-5.324,0.542-6.138,0.274c0.612-0.783,1.588-1.276,2.532-1.753c1.447-0.732,3.248-1.642,2.676-3.785
			c-0.535-2.005-1.831-2.348-2.363-2.402c-1.069-0.116-2.182,0.532-2.696,1.559l1.315,0.657c0.238-0.477,0.759-0.803,1.232-0.754
			c0.662,0.067,0.968,0.855,1.092,1.319c0.231,0.867-0.202,1.226-1.92,2.094c-1.048,0.53-2.236,1.13-3.051,2.19
			c-0.575,0.747-0.388,1.316-0.225,1.588C422.807,38.368,424.045,38.605,425.577,38.605z"/>
        <path style="fill:#263238;" d="M482.367,26.107c-0.671-0.209-1.372-0.073-1.996,0.187l0.696-1.934l5.918-1.151l-0.28-1.443
			l-6.328,1.23c-0.255,0.05-0.464,0.229-0.551,0.472l-1.582,4.395c-0.116,0.321,0.004,0.679,0.29,0.865
			c0.284,0.185,0.659,0.151,0.908-0.083c0.493-0.47,1.751-1.362,2.487-1.135c0.49,0.153,0.736,0.875,0.857,1.455
			c0.437,2.096-0.54,3.886-1.695,4.342c-0.911,0.36-1.831-0.121-2.583-1.357l-1.256,0.764c0.866,1.422,2.023,2.185,3.238,2.185
			c0.378,0,0.76-0.073,1.141-0.224c1.747-0.69,3.195-3.126,2.594-6.009C483.933,27.261,483.308,26.4,482.367,26.107z"/>
        <rect x="407.89" y="54.445" style="fill:#263238;" width="61.915" height="1.47"/>
        <rect x="423.202" y="70.424" style="fill:#263238;" width="9.654" height="1.47"/>
        <path style="fill:#263238;" d="M440.236,66.367c-0.092-0.502-0.334-1.835-1.37-1.94c-1.175-0.125-2.102,1.638-2.699,3.13
			l1.365,0.546c0.329-0.822,0.799-1.666,1.117-2.043c0.043,0.125,0.093,0.307,0.141,0.569c0.524,2.881-1.872,4.609-3.304,5.641
			l-0.408,0.298c-0.551,0.413-0.456,0.925-0.414,1.072c0.123,0.431,0.378,1.326,7.116,1.912l0.128-1.464
			c-1.952-0.17-4.2-0.497-5.313-0.806C438.149,72.15,440.889,69.96,440.236,66.367z"/>
        <path style="fill:#263238;" d="M451.805,74.178c-0.278,0.154-0.426,0.186-0.449,0.21c-0.274-0.448,0.014-2.554,0.187-3.822
			c0.174-1.275,0.354-2.592,0.354-3.735c0-1.019-0.444-1.344-0.815-1.435c-0.417-0.104-1.288-0.319-4.226,4.573l1.032-4.987
			l-1.44-0.297l-1.997,9.654c-0.074,0.358,0.127,0.716,0.471,0.84c0.341,0.12,0.727-0.024,0.899-0.348
			c1.554-2.935,3.522-6.209,4.595-7.488c-0.042,0.932-0.188,1.992-0.329,3.024c-0.359,2.625-0.619,4.521,0.435,5.242
			c0.227,0.155,0.483,0.233,0.768,0.233c0.365,0,0.775-0.126,1.228-0.378c3.088-1.715,4.487-3.439,4.545-3.512l-1.147-0.92
			C455.904,71.047,454.617,72.616,451.805,74.178z"/>
        <polygon style="fill:#263238;" points="463.732,69.559 463.894,68.098 461.472,67.829 461.861,66.353 460.44,65.978
			459.996,67.665 457.902,67.432 457.74,68.893 459.618,69.102 458.775,72.303 460.196,72.677 461.094,69.266 		"/>
        <path style="fill:#263238;" d="M469.62,74.451c2.062-0.492,3.445-1.839,3.897-3.794c0.344-1.493-0.151-2.323-0.627-2.755
			c-0.92-0.838-2.522-0.853-3.888-0.666c0.577-0.924,1.031-2.191,0.869-3.807c-0.039-0.387-0.156-1.565-1.101-1.738
			c-0.932-0.173-2.042,0.998-3.284,3.48l1.315,0.657c0.5-1.001,1.159-2.013,1.58-2.467c0.01,0.061,0.019,0.132,0.027,0.214
			c0.281,2.813-1.898,4.239-1.989,4.297c-0.316,0.197-0.434,0.599-0.275,0.936c0.159,0.337,0.545,0.5,0.897,0.384
			c1.214-0.404,3.997-0.985,4.86-0.203c0.1,0.092,0.406,0.37,0.183,1.338c-0.408,1.771-1.75,2.443-2.805,2.694
			c-1.862,0.442-3.867-0.16-4.568-1.003l-1.13,0.942c0.873,1.047,2.628,1.677,4.408,1.677
			C468.539,74.637,469.091,74.578,469.62,74.451z"/>
	</g>
</g>
    <g id="Plant">
	<g>
		<g>
			<g>

					<line style="fill:none;stroke:#263238;stroke-linecap:round;stroke-linejoin:round;stroke-miterlimit:10;" x1="198.322" y1="149.432" x2="198.322" y2="67.369"/>

                <line style="fill:none;stroke:#263238;stroke-linecap:round;stroke-linejoin:round;stroke-miterlimit:10;" x1="198.328" y1="100.919" x2="224.514" y2="78.224"/>
                <path style="fill:none;stroke:#263238;stroke-linecap:round;stroke-linejoin:round;stroke-miterlimit:10;" d="M205.141,58.945
					c0.734,2.855,1.258,5.869,1.333,8.805c0.291,11.347-8.147,17.166-8.147,17.166s-6.692-6.692-6.983-18.621
					c-0.291-11.929,7.856-22.403,7.856-22.403s2.416,4.328,4.464,10.202"/>
                <path style="fill:none;stroke:#263238;stroke-linecap:round;stroke-linejoin:round;stroke-miterlimit:10;" d="M213.166,86.953
					c0,0-1.455-8.729,5.237-13.966c6.692-5.237,22.985-2.619,22.985-2.619s-4.655,9.602-10.765,15.13
					C224.514,91.026,215.785,90.445,213.166,86.953z"/>
                <g>

						<line style="fill:none;stroke:#263238;stroke-linecap:round;stroke-linejoin:round;stroke-miterlimit:10;" x1="198.037" y1="125.359" x2="180.288" y2="109.13"/>
                    <path style="fill:none;stroke:#263238;stroke-linecap:round;stroke-linejoin:round;stroke-miterlimit:10;" d="M188.144,117.144
						c0,0,3.492-7.285,0-12.628c-3.491-5.343-20.949-5.343-20.949-5.343s0.291,14.085,6.692,18.213
						C180.288,121.515,188.144,117.144,188.144,117.144z"/>
				</g>
                <g>

						<line style="fill:none;stroke:#263238;stroke-linecap:round;stroke-linejoin:round;stroke-miterlimit:10;" x1="198.619" y1="105.574" x2="185.041" y2="88.433"/>
                    <path style="fill:none;stroke:#263238;stroke-linecap:round;stroke-linejoin:round;stroke-miterlimit:10;" d="M190.86,95.01
						c0,0,2.586-5.979,0-10.365c-2.586-4.385-15.517-4.385-15.517-4.385s0.215,11.56,4.957,14.949
						C185.041,98.598,190.86,95.01,190.86,95.01z"/>
				</g>
                <path style="fill:none;stroke:#263238;stroke-linecap:round;stroke-linejoin:round;stroke-miterlimit:10;" d="M222.323,108.666
					c-2.221-4.385-5.385-9.134-9.159-10.587c-7.549-2.908-13.577,4.358-13.577,4.358s-0.848,9.363,4.329,14.497
					c5.177,5.134,21.904,0.139,21.904,0.139s-0.609-1.918-1.717-4.549"/>

                <line style="fill:none;stroke:#263238;stroke-linecap:round;stroke-linejoin:round;stroke-miterlimit:10;" x1="199.587" y1="102.437" x2="212.876" y2="110.229"/>
			</g>
		</g>

        <line style="fill:none;stroke:#263238;stroke-linecap:round;stroke-linejoin:round;stroke-miterlimit:10;" x1="170.183" y1="150.105" x2="227.466" y2="150.105"/>
	</g>
</g>
    <g id="Sun">
	<g>

			<ellipse transform="matrix(0.9403 -0.3404 0.3404 0.9403 -13.7329 52.6964)" style="fill:none;stroke:#263238;stroke-linecap:round;stroke-linejoin:round;stroke-miterlimit:10;" cx="143.307" cy="65.484" rx="15.715" ry="15.715"/>
        <g>

				<line style="fill:none;stroke:#263238;stroke-linecap:round;stroke-linejoin:round;stroke-miterlimit:10;" x1="142.643" y1="34.987" x2="142.643" y2="44.35"/>

            <line style="fill:none;stroke:#263238;stroke-linecap:round;stroke-linejoin:round;stroke-miterlimit:10;" x1="142.643" y1="86.212" x2="142.643" y2="95.575"/>
		</g>
        <g>

				<line style="fill:none;stroke:#263238;stroke-linecap:round;stroke-linejoin:round;stroke-miterlimit:10;" x1="112.348" y1="65.281" x2="121.712" y2="65.281"/>

            <line style="fill:none;stroke:#263238;stroke-linecap:round;stroke-linejoin:round;stroke-miterlimit:10;" x1="163.573" y1="65.281" x2="172.937" y2="65.281"/>
		</g>
        <g>

				<line style="fill:none;stroke:#263238;stroke-linecap:round;stroke-linejoin:round;stroke-miterlimit:10;" x1="121.221" y1="86.702" x2="127.843" y2="80.081"/>

            <line style="fill:none;stroke:#263238;stroke-linecap:round;stroke-linejoin:round;stroke-miterlimit:10;" x1="157.443" y1="50.481" x2="164.064" y2="43.86"/>
		</g>
        <g>

				<line style="fill:none;stroke:#263238;stroke-linecap:round;stroke-linejoin:round;stroke-miterlimit:10;" x1="164.064" y1="86.702" x2="157.443" y2="80.081"/>

            <line style="fill:none;stroke:#263238;stroke-linecap:round;stroke-linejoin:round;stroke-miterlimit:10;" x1="127.843" y1="50.481" x2="121.221" y2="43.86"/>
		</g>
	</g>
</g>
    <g id="Pencil">
	<g>
		<path style="fill:none;stroke:#263238;stroke-miterlimit:10;" d="M115.996,179.154l-12.976-29.569l27.815,16.683l154.383,177.787
			c2.838,3.268,2.489,8.218-0.779,11.056l-3.005,2.609c-3.268,2.838-8.218,2.489-11.056-0.779L115.996,179.154z"/>
        <polygon style="fill:none;stroke:#263238;stroke-miterlimit:10;" points="130.764,166.225 103.021,149.585 115.963,179.077 		"/>
        <polygon style="fill:#263238;stroke:#263238;stroke-miterlimit:10;" points="119.461,159.446 103.021,149.585 110.69,167.062
			"/>
        <path style="fill:none;stroke:#263238;stroke-miterlimit:10;" d="M281.435,357.72l3.005-2.609
			c3.268-2.838,3.617-7.788,0.779-11.056l-15.188-17.49l-14.84,12.886l15.188,17.49C273.217,360.209,278.167,360.558,281.435,357.72
			z"/>

        <rect x="254.731" y="332.281" transform="matrix(0.7551 -0.6557 0.6557 0.7551 -155.0082 255.5781)" style="fill:none;stroke:#263238;stroke-miterlimit:10;" width="19.654" height="5.938"/>

        <rect x="250.997" y="327.981" transform="matrix(0.7551 -0.6557 0.6557 0.7551 -153.1034 252.0765)" style="fill:none;stroke:#263238;stroke-miterlimit:10;" width="19.654" height="5.938"/>
        <line style="fill:none;stroke:#263238;stroke-miterlimit:10;" x1="260.5" y1="323.699" x2="128.556" y2="171.751"/>
        <line style="fill:none;stroke:#263238;stroke-miterlimit:10;" x1="234.669" y1="306.422" x2="163.186" y2="224.103"/>
        <line style="fill:none;stroke:#263238;stroke-miterlimit:10;" x1="156.336" y1="216.214" x2="124.764" y2="179.857"/>
	</g>
</g>
    <g id="Books">
	<g>
		<path style="fill:none;stroke:#263238;stroke-linecap:round;stroke-linejoin:round;stroke-miterlimit:10;" d="M205.289,372.049
			l-10.498,43.802c0,0,3.62,5.068,5.068,6.516c1.448,1.448,4.706,1.448,5.792,1.448s41.992,0.724,41.992,0.724l8.047-53.576"/>

        <line style="fill:none;stroke:#263238;stroke-linecap:round;stroke-linejoin:round;stroke-miterlimit:10;" x1="214.057" y1="363.784" x2="210.719" y2="363.723"/>
        <polyline style="fill:none;stroke:#263238;stroke-linecap:round;stroke-linejoin:round;stroke-miterlimit:10;" points="
			196.963,416.574 241.13,416.427 250.539,364.447 218.147,363.858 		"/>
        <polyline style="fill:none;stroke:#263238;stroke-linecap:round;stroke-linejoin:round;stroke-miterlimit:10;" points="
			199.497,416.936 203.117,420.918 245.471,422.004 253.135,375.56 249.815,370.963 		"/>
        <path style="fill:#263238;" d="M206.905,419.236h6.13c0,0-1.022,4.853-1.533,9.45c-0.511,4.597-0.766,10.472-0.766,10.472
			l-3.576-6.641l-4.342,5.619L206.905,419.236z"/>
	</g>
        <g>
		<polyline style="fill:none;stroke:#263238;stroke-linecap:round;stroke-linejoin:round;stroke-miterlimit:10;" points="
			82.075,195.969 65.364,222.165 68.977,223.068 85.688,198.228 112.335,213.584 115.948,209.971 86.591,194.615 		"/>
            <polyline style="fill:none;stroke:#263238;stroke-linecap:round;stroke-linejoin:round;stroke-miterlimit:10;" points="
			85.688,198.228 92.914,241.586 115.045,254.232 111.883,215.842 		"/>
            <polyline style="fill:none;stroke:#263238;stroke-linecap:round;stroke-linejoin:round;stroke-miterlimit:10;" points="
			115.045,254.232 118.658,247.457 115.948,209.971 		"/>
            <polyline style="fill:none;stroke:#263238;stroke-linecap:round;stroke-linejoin:round;stroke-miterlimit:10;" points="
			92.914,241.586 78.01,261.91 70.332,226.681 		"/>
            <polyline style="fill:none;stroke:#263238;stroke-linecap:round;stroke-linejoin:round;stroke-miterlimit:10;" points="
			65.364,222.165 73.945,261.458 78.01,261.91 		"/>

            <line style="fill:none;stroke:#263238;stroke-linecap:round;stroke-linejoin:round;stroke-miterlimit:10;" x1="86.591" y1="213.132" x2="74.848" y2="229.391"/>

            <line style="fill:none;stroke:#263238;stroke-linecap:round;stroke-linejoin:round;stroke-miterlimit:10;" x1="87.494" y1="220.81" x2="75.752" y2="237.069"/>

            <line style="fill:none;stroke:#263238;stroke-linecap:round;stroke-linejoin:round;stroke-miterlimit:10;" x1="88.398" y1="228.488" x2="76.655" y2="244.747"/>

            <line style="fill:none;stroke:#263238;stroke-linecap:round;stroke-linejoin:round;stroke-miterlimit:10;" x1="89.301" y1="236.166" x2="77.558" y2="252.425"/>

            <line style="fill:none;stroke:#263238;stroke-linecap:round;stroke-linejoin:round;stroke-miterlimit:10;" x1="91.559" y1="213.584" x2="107.367" y2="222.617"/>

            <line style="fill:none;stroke:#263238;stroke-linecap:round;stroke-linejoin:round;stroke-miterlimit:10;" x1="91.559" y1="220.81" x2="107.367" y2="229.843"/>

            <line style="fill:none;stroke:#263238;stroke-linecap:round;stroke-linejoin:round;stroke-miterlimit:10;" x1="93.818" y1="228.488" x2="109.625" y2="237.521"/>

            <line style="fill:none;stroke:#263238;stroke-linecap:round;stroke-linejoin:round;stroke-miterlimit:10;" x1="94.269" y1="236.166" x2="110.077" y2="245.199"/>
	</g>
</g>
    <g id="Circles">
	<g>

			<ellipse transform="matrix(0.7071 -0.7071 0.7071 0.7071 -179.5129 152.7263)" style="fill:none;stroke:#263238;stroke-miterlimit:10;" cx="94.6" cy="293.054" rx="8.606" ry="8.606"/>

        <ellipse transform="matrix(0.1826 -0.9832 0.9832 0.1826 -190.7003 356.7405)" style="fill:none;stroke:#263238;stroke-miterlimit:10;" cx="119.188" cy="293.054" rx="8.606" ry="8.606"/>

        <ellipse transform="matrix(0.2298 -0.9732 0.9732 0.2298 -174.4722 365.6541)" style="fill:#263238;stroke:#263238;stroke-miterlimit:10;" cx="143.776" cy="293.054" rx="8.606" ry="8.606"/>

        <ellipse transform="matrix(0.7071 -0.7071 0.7071 0.7071 -157.9084 204.8843)" style="fill:none;stroke:#263238;stroke-miterlimit:10;" cx="168.363" cy="293.054" rx="8.606" ry="8.606"/>

        <ellipse transform="matrix(0.7071 -0.7071 0.7071 0.7071 -197.7682 160.2879)" style="fill:none;stroke:#263238;stroke-miterlimit:10;" cx="94.6" cy="318.871" rx="8.606" ry="8.606"/>

        <ellipse transform="matrix(0.1826 -0.9832 0.9832 0.1826 -216.0834 377.8443)" style="fill:#263238;stroke:#263238;stroke-miterlimit:10;" cx="119.188" cy="318.871" rx="8.606" ry="8.606"/>

        <ellipse transform="matrix(0.2298 -0.9732 0.9732 0.2298 -199.5984 385.5395)" style="fill:none;stroke:#263238;stroke-miterlimit:10;" cx="143.776" cy="318.871" rx="8.606" ry="8.606"/>

        <ellipse transform="matrix(0.7071 -0.7071 0.7071 0.7071 -176.1637 212.4459)" style="fill:none;stroke:#263238;stroke-miterlimit:10;" cx="168.363" cy="318.871" rx="8.606" ry="8.606"/>

        <ellipse transform="matrix(0.2298 -0.9732 0.9732 0.2298 -262.6018 357.5645)" style="fill:none;stroke:#263238;stroke-miterlimit:10;" cx="94.6" cy="344.688" rx="8.606" ry="8.606"/>

        <ellipse transform="matrix(0.8702 -0.4927 0.4927 0.8702 -154.357 103.4645)" style="fill:none;stroke:#263238;stroke-miterlimit:10;" cx="119.188" cy="344.688" rx="8.606" ry="8.606"/>

        <ellipse transform="matrix(0.7071 -0.7071 0.7071 0.7071 -201.6205 202.6215)" style="fill:none;stroke:#263238;stroke-miterlimit:10;" cx="143.776" cy="344.688" rx="8.606" ry="8.606"/>

        <ellipse transform="matrix(0.2298 -0.9732 0.9732 0.2298 -205.7865 429.3539)" style="fill:#263238;stroke:#263238;stroke-miterlimit:10;" cx="168.363" cy="344.688" rx="8.606" ry="8.606"/>

        <ellipse transform="matrix(0.2298 -0.9732 0.9732 0.2298 -287.7281 377.4499)" style="fill:none;stroke:#263238;stroke-miterlimit:10;" cx="94.6" cy="370.505" rx="8.606" ry="8.606"/>

        <ellipse transform="matrix(0.8702 -0.4927 0.4927 0.8702 -167.077 106.8155)" style="fill:none;stroke:#263238;stroke-miterlimit:10;" cx="119.188" cy="370.505" rx="8.606" ry="8.606"/>

        <ellipse transform="matrix(0.7071 -0.7071 0.7071 0.7071 -219.8758 210.1831)" style="fill:#263238;stroke:#263238;stroke-miterlimit:10;" cx="143.776" cy="370.505" rx="8.606" ry="8.606"/>

        <ellipse transform="matrix(0.2298 -0.9732 0.9732 0.2298 -230.9127 449.2393)" style="fill:none;stroke:#263238;stroke-miterlimit:10;" cx="168.363" cy="370.505" rx="8.606" ry="8.606"/>
	</g>
</g>
    <g id="Character">
	<g>
		<g>
			<path style="fill:#263238;stroke:#263238;stroke-miterlimit:10;" d="M406.344,122.142c0,0-8.683-10.091-20.652-12.438
				c-11.969-2.347-27.106,9.974-29.453,14.902c-2.347,4.928-6.689,44.707-6.689,44.707h68.293c0,0-6.571-34.498-7.745-38.019
				C408.925,127.774,406.344,122.142,406.344,122.142z"/>
            <g>
				<path style="fill:#FFFFFF;stroke:#263238;stroke-miterlimit:10;" d="M364.861,169.91c0,0-2.295,57.188-4.06,65.131
					c-1.765,7.943-10.414,26.829-13.767,38.125c-3.354,11.297-4.06,17.474-4.06,17.474h73.956c0,0-11.826-48.01-12.885-54.894
					c-1.059-6.884,0-62.307,0-62.307v-4.413L364.861,169.91z"/>
                <path style="fill:#263238;stroke:#263238;stroke-miterlimit:10;" d="M410.103,262.508h-59.35
					c-1.469,3.867-2.796,7.553-3.718,10.658c-3.354,11.296-4.06,17.474-4.06,17.474h73.956
					C416.931,290.64,413.455,276.527,410.103,262.508z"/>
			</g>
            <g>
				<path style="fill:#92E3A9;" d="M401.045,165.85c0,0-1.765,75.545-1.236,81.37c0.53,5.825,21.357,66.367,21.887,69.014
					c0.53,2.648,3.53,9.884,3.53,9.884h14.297c0,0,2.118-21.357-2.471-38.479c-4.589-17.121-14.297-33.713-16.415-38.478
					s4.06-45.186,4.06-45.186s24.005,28.771,25.417,30.006c1.412,1.236,31.242,4.942,30.183,3.177
					c-1.059-1.765-15.886-21.181-22.769-30.006c-6.884-8.825-18.18-27.712-22.946-32.83c-4.766-5.119-14.474-9.884-19.239-9.178
					c-4.766,0.706-7.766,1.235-7.766,1.235L401.045,165.85z"/>
                <path style="fill:none;stroke:#263238;stroke-miterlimit:10;" d="M416.225,185.795c0,0,2.295,10.943,6.354,15.18"/>
                <path style="fill:none;stroke:#263238;stroke-miterlimit:10;" d="M416.048,195.68c0,0,3.354,6.531,6.707,8.825"/>
                <path style="fill:none;stroke:#263238;stroke-miterlimit:10;" d="M408.988,200.445c0,0,6.531,6.707,12.179,9.002"/>
                <path style="fill:none;stroke:#263238;stroke-miterlimit:10;" d="M457.881,224.45c0,0,7.943-1.412,11.12,0.883"/>
                <path style="fill:none;stroke:#263238;stroke-miterlimit:10;" d="M461.234,221.979c0,0-3.883-0.53-7.413,2.471"/>
			</g>
            <g>
				<path style="fill:#92E3A9;" d="M366.803,173.087c0,0,0.883,29.83-0.353,46.774c-1.236,16.945-2.471,18.004-3.354,25.77
					c-0.883,7.766-10.59,30.359-17.121,39.891c-6.531,9.531-11.12,23.652-12.885,30.712c-1.765,7.06-1.942,9.884-1.942,9.884
					h-11.826c0,0-3.883-8.296,3.883-34.772c7.766-26.476,19.063-37.066,19.945-45.362c0.883-8.296-3.707-40.95-3.707-40.95
					l-20.352,24.535l-22.593,4.06c0,0,4.517-10.958,8.93-19.96c4.413-9.002,13.612-21.122,16.894-28.932
					c4.781-11.378,15.709-19.063,19.945-19.592c4.236-0.53,13.944-0.883,13.944-0.883l8.296-1.412L366.803,173.087z"/>
                <line style="fill:none;stroke:#263238;stroke-miterlimit:10;" x1="339.444" y1="205.034" x2="335.914" y2="179.794"/>
                <line style="fill:none;stroke:#263238;stroke-miterlimit:10;" x1="329.737" y1="183.854" x2="337.15" y2="200.445"/>
                <line style="fill:none;stroke:#263238;stroke-miterlimit:10;" x1="329.737" y1="195.327" x2="334.149" y2="201.151"/>
                <path style="fill:none;stroke:#263238;stroke-miterlimit:10;" d="M308.936,221.068c0,0,7.06-1.059,11.826,1.765"/>
                <path style="fill:none;stroke:#263238;stroke-miterlimit:10;" d="M306.112,219.656c0,0,5.648-1.412,7.766-1.059"/>
			</g>
            <ellipse style="fill:#FFFFFF;stroke:#263238;stroke-miterlimit:10;" cx="383.871" cy="181.021" rx="15.091" ry="21.718"/>
            <path style="fill:#263238;stroke:#263238;stroke-miterlimit:10;" d="M345.34,164.812c0,0,10.199,13.801,19.98,21.136
				c9.781,7.335,18.746-1.087,18.746-1.087l-17.659-21.735L345.34,164.812z"/>
            <g>
				<path style="fill:#FFFFFF;stroke:#263238;stroke-miterlimit:10;" d="M379.624,132.005c0,0-18.183,8.469-18.432,11.956
					c-0.249,3.487,2.491,23.912,3.736,27.4c1.245,3.487,14.314,16.809,16.805,17.058c2.491,0.249,5.48-0.249,6.476-1.245
					c0.996-0.996,13.833-14.567,14.082-16.559c0.249-1.993,0.996-27.898,0.996-27.898l-20.923-10.96l-0.996-16.689l-1.993,0.498
					L379.624,132.005z"/>
                <path style="fill:none;stroke:#263238;stroke-miterlimit:10;" d="M378.803,169.872c0,0-0.504,1.512,0.336,2.184
					c0.84,0.672,3.359,2.184,5.039,1.344c1.68-0.84,2.855-2.016,2.688-3.191"/>
                <path style="fill:none;stroke:#263238;stroke-miterlimit:10;" d="M377.292,176.591c0,0,2.52,2.016,5.879,1.68
					c3.359-0.336,5.879-2.352,5.879-2.352"/>
                <path style="fill:none;stroke:#263238;stroke-miterlimit:10;" d="M368.893,161.138c0,0,3.863,3.359,8.063,1.176"/>
                <path style="fill:none;stroke:#263238;stroke-miterlimit:10;" d="M388.882,162.146c0,0,5.039,2.184,8.231-0.84"/>
                <path style="fill:none;stroke:#263238;stroke-miterlimit:10;" d="M375.948,154.083c0,0-5.879-2.52-10.078,1.176"/>
                <path style="fill:none;stroke:#263238;stroke-miterlimit:10;" d="M388.042,153.747c0,0,6.887-2.52,10.078,1.176"/>
			</g>
		</g>
        <g>
			<g>
				<path style="fill:#FFFFFF;stroke:#263238;stroke-miterlimit:10;" d="M370.893,211.545l9.167,15.513l2.074,0.216l-9.384-16.683
					c-0.298-0.596-1.07-0.765-1.588-0.347l0,0C370.773,210.558,370.66,211.103,370.893,211.545z"/>
                <g>
					<path style="fill:#FFFFFF;stroke:#263238;stroke-miterlimit:10;" d="M367.892,228.128c0,0,2.696-3.306,5.712-3.294
						c3.016,0.012,8.921,0.676,10.052,1.097c1.132,0.421,3.294,5.712,3.634,6.171c0.34,0.46,2.641,2.093,2.734,3.993
						c0.093,1.9-0.479,3.197-0.479,3.197s-0.29,3.823-0.734,4.48c-0.444,0.656-0.444,0.656-0.444,0.656s-1.023,1.796-1.498,1.819
						c-0.475,0.023-20.78,0.219-20.78,0.219S364.551,234.48,367.892,228.128z"/>
                    <path style="fill:none;stroke:#263238;stroke-miterlimit:10;" d="M378.315,230.318c0,0,3.476-0.328,4.449,0.1
						c0.973,0.429,4.526,1.684,4.526,1.684"/>
                    <line style="fill:none;stroke:#263238;stroke-miterlimit:10;" x1="381.188" y1="237.161" x2="389.545" y2="239.293"/>
                    <line style="fill:none;stroke:#263238;stroke-miterlimit:10;" x1="380.493" y1="242.432" x2="388.367" y2="244.429"/>
				</g>
			</g>
            <path style="fill:#92E3A9;" d="M310.493,223.948c0,0,7.048-1.931,11.249-0.39c4.202,1.541,19.472,4.283,29.911,6.79
				c10.438,2.507,16.239-2.22,16.239-2.22s-2.634,4.572-2.325,10.906c0.309,6.333,0.521,7.434,0.521,7.434
				s-21.715,0.583-28.207,0.899s-41.628,0.289-42.778-3.782s1.105-9.894,3.167-13.169"/>
		</g>
        <g>
			<path style="fill:#92E3A9;" d="M470.885,229.256c0,0-1.585-1.902-8.877-1.744c-7.292,0.158-23.937,9.036-28.693,10.462
				c-4.756,1.427-14.901,0.634-14.901,0.634l9.194,8.719h52.154c0,0,5.39-2.536,4.439-7.45c-0.951-4.914-11.097-9.828-11.097-9.828"
            />
            <g>
				<path style="fill:#FFFFFF;stroke:#263238;stroke-miterlimit:10;" d="M396.221,246.852c0,0,9.353-6.499,11.572-7.609
					c2.219-1.11,9.67-0.793,10.621-0.634c0.951,0.158,7.609,4.28,8.877,5.707c1.268,1.427,2.378,3.17,2.378,3.17L396.221,246.852z"
                />
                <path style="fill:none;stroke:#263238;stroke-miterlimit:10;" d="M401.77,246.376c0,0,7.609-4.756,10.462-5.865"/>
                <path style="fill:none;stroke:#263238;stroke-miterlimit:10;" d="M409.061,246.852c0,0,7.134-4.597,8.877-5.865"/>
                <path style="fill:none;stroke:#263238;stroke-miterlimit:10;" d="M416.829,247.169c0,0,3.487-2.219,6.024-3.171"/>
			</g>
		</g>
        <path style="fill:#FFFFFF;stroke:#263238;stroke-miterlimit:10;" d="M323.957,456.18h-0.972c-0.957,0-1.732-0.775-1.732-1.732
			V332.467h4.436v121.981C325.689,455.405,324.914,456.18,323.957,456.18z"/>
        <path style="fill:#FFFFFF;stroke:#263238;stroke-miterlimit:10;" d="M439.291,456.18h-0.972c-0.956,0-1.732-0.775-1.732-1.732
			V332.467h4.436v121.981C441.023,455.405,440.248,456.18,439.291,456.18z"/>
        <path style="fill:#8C8C8C;stroke:#263238;stroke-miterlimit:10;" d="M444.336,335.1H318.21c-1.733,0-3.138-1.405-3.138-3.138
			v-9.171c0-1.733,1.405-3.138,3.138-3.138h126.127c1.733,0,3.138,1.405,3.138,3.138v9.171
			C447.474,333.695,446.069,335.1,444.336,335.1z"/>
        <g>
			<path style="fill:#263238;stroke:#263238;stroke-miterlimit:10;" d="M382.038,262.503c0,0-18.746,4.861-32.541,14.569
				c-13.795,9.708-19.86,20.743-17.654,34.425c2.122,13.153,18.398,18.675,24.274,17.654c5.876-1.022,16.213,0.029,24.644-7.89
				c8.43-7.919,23.758-45.728,23.758-45.728S393.789,260.204,382.038,262.503z"/>
            <g>
				<g>
					<path style="fill:#FFFFFF;stroke:#263238;stroke-miterlimit:10;" d="M363.644,388.447c0,0,1.022,34.743,0.766,37.042
						c-0.255,2.299-11.496,17.372-14.306,21.459c-2.81,4.087-4.598,9.963-2.81,14.561c1.788,4.598,8.686,4.854,13.029,2.555
						c4.343-2.299,14.306-26.057,14.817-29.634c0.511-3.577,1.277-13.029,1.277-13.029l6.642-30.4L363.644,388.447z"/>
                    <path style="fill:#92E3A9;" d="M375.51,431.311c-2.711,6.275-8.034,15.638-8.034,15.638s-2.555-2.555-6.131-4.087
						c-3.576-1.533-5.876-1.277-5.876-1.277l1.433-4.17c-2.796,3.951-5.584,7.768-6.798,9.535c-2.81,4.087-4.598,9.963-2.81,14.561
						c1.788,4.598,8.686,4.854,13.029,2.555c4.343-2.299,14.306-26.057,14.817-29.634
						C375.254,433.63,375.382,432.528,375.51,431.311z"/>
				</g>
                <path style="fill:#263238;stroke:#263238;stroke-miterlimit:10;" d="M387.913,296.224c0,0-13.029-1.022-17.627,4.598
					c-4.598,5.62-7.153,22.481-7.409,33.466c-0.255,10.985,0.511,49.816,0.511,49.816l19.671,3.066c0,0,15.072-52.881,16.35-62.589
					C400.686,314.873,396.854,295.969,387.913,296.224z"/>
                <path style="fill:#B0B0B0;stroke:#263238;stroke-miterlimit:10;" d="M361.454,380.895l0.402,9.851c0,0,6.082,4.636,10.403,5.309
					c8.564,1.332,13.1-3.52,13.1-3.52l1.401-8.208c0.181-1.061-0.742-1.99-1.802-1.799c-2.521,0.455-6.893,0.996-11.367,0.395
					c-3.605-0.484-7.411-2.237-9.883-3.486C362.646,378.901,361.405,379.706,361.454,380.895z"/>
			</g>
            <g>
				<g>
					<path style="fill:#FFFFFF;stroke:#263238;stroke-miterlimit:10;" d="M411.927,340.164c0,0,26.313,38.064,28.101,42.663
						c1.788,4.598,5.876,19.926,8.43,27.846c2.555,7.919,9.708,12.007,12.773,12.262c3.065,0.255,7.408-8.175,6.897-14.306
						c-0.511-6.131-4.598-15.839-8.43-22.225c-3.832-6.387-5.876-11.496-7.664-14.051c-1.788-2.555-6.897-10.729-10.729-16.605
						s-13.284-28.101-13.284-28.101L411.927,340.164z"/>
                    <path style="fill:#92E3A9;" d="M450.502,396.878c-5.365,0-7.664-6.898-7.664-6.898l-0.359,0.484
						c1.924,6.476,4.286,14.962,5.979,20.209c2.555,7.919,9.708,12.007,12.773,12.262c3.066,0.255,7.409-8.175,6.898-14.306
						c-0.511-6.131-4.598-15.839-8.43-22.225c-3.832-6.387-5.876-11.496-7.664-14.051c0,0,7.153,12.518,7.153,17.116
						C459.188,394.067,455.867,396.878,450.502,396.878z"/>
				</g>
                <g>
					<path style="fill:#263238;stroke:#263238;stroke-miterlimit:10;" d="M379.227,281.152c0,0,9.963,26.824,16.861,38.32
						c6.898,11.496,12.262,17.882,12.262,17.882l19.671-13.284c0,0-12.007-46.495-21.204-56.202
						c-9.197-9.708-19.16-8.175-24.78-5.365l-6.897,4.854"/>
                    <path style="fill:#B0B0B0;stroke:#263238;stroke-miterlimit:10;" d="M405.622,338.655l6.978,8.722
						c1.07,1.338,3,1.606,4.395,0.61l15.874-8.17c1.152-0.823,1.633-2.302,1.185-3.645l-3.219-10.493
						c-0.404-1.213-1.747-1.831-2.929-1.343c-4.811,1.987-16.332,6.96-21.915,11.197
						C405.009,336.278,404.852,337.692,405.622,338.655z"/>
				</g>
			</g>
		</g>
        <g>
			<rect x="282.473" y="253.903" style="fill:#8C8C8C;stroke:#263238;stroke-miterlimit:10;" width="197.292" height="25.928"/>
            <path style="fill:#FFFFFF;stroke:#263238;stroke-miterlimit:10;" d="M282.471,456.18h-1.296c-1.275,0-2.309-1.034-2.309-2.309
				V251.142h5.915v202.729C284.78,455.146,283.746,456.18,282.471,456.18z"/>
            <path style="fill:#FFFFFF;stroke:#263238;stroke-miterlimit:10;" d="M481.102,456.18h-1.296c-1.275,0-2.309-1.034-2.309-2.309
				V251.142h5.914v202.729C483.411,455.146,482.377,456.18,481.102,456.18z"/>
		</g>
        <rect x="272.494" y="246.314" style="fill:#FFFFFF;stroke:#263238;stroke-miterlimit:10;" width="218.011" height="9.419"/>
	</g>
</g>
</svg>
